<svg width="21" height="20" viewBox="0 0 21 20" fill="none" xmlns="http://www.w3.org/2000/svg">
<g id="facebook">
<g id="Icon">
<path fill-rule="evenodd" clip-rule="evenodd" d="M9.46447 2.29778C10.4021 1.3601 11.6739 0.833313 13 0.833313H15.5C15.9602 0.833313 16.3333 1.20641 16.3333 1.66665V4.99998C16.3333 5.46022 15.9602 5.83331 15.5 5.83331H13V7.49998H15.5C15.7566 7.49998 15.9989 7.61821 16.1568 7.82047C16.3148 8.02273 16.3707 8.28647 16.3085 8.53543L15.4751 11.8688C15.3824 12.2397 15.0491 12.5 14.6667 12.5H13V18.3333C13 18.7935 12.6269 19.1666 12.1667 19.1666H8.83333C8.3731 19.1666 8 18.7935 8 18.3333V12.5H6.33333C5.8731 12.5 5.5 12.1269 5.5 11.6666V8.33331C5.5 7.87308 5.8731 7.49998 6.33333 7.49998H8V5.83331C8 4.50723 8.52678 3.23546 9.46447 2.29778ZM13 2.49998C12.1159 2.49998 11.2681 2.85117 10.643 3.47629C10.0179 4.10141 9.66667 4.94926 9.66667 5.83331V8.33331C9.66667 8.79355 9.29357 9.16665 8.83333 9.16665H7.16667V10.8333H8.83333C9.29357 10.8333 9.66667 11.2064 9.66667 11.6666V17.5H11.3333V11.6666C11.3333 11.2064 11.7064 10.8333 12.1667 10.8333H14.016L14.4327 9.16665H12.1667C11.7064 9.16665 11.3333 8.79355 11.3333 8.33331V5.83331C11.3333 5.39128 11.5089 4.96736 11.8215 4.6548C12.134 4.34224 12.558 4.16665 13 4.16665H14.6667V2.49998H13Z" fill="black"/>
</g>
</g>
</svg>
