<svg xmlns="http://www.w3.org/2000/svg" width="390" height="665" viewBox="0 0 390 665" fill="none">
  <path d="M161.905 8.01604C51.4897 -9.4175 10.6768 9.05138 -2.5676 26.3209C-2.8497 24.3625 -3.20187 22.2534 -3.63272 19.9858V27.7921C-12.0334 40.1119 -6.8587 51.2707 -3.63272 47.5656V650.661C-35.9592 651.46 -3.63272 663 -3.63272 663V650.661C9.01816 650.348 31.5708 651.681 69.8378 655.994C205.887 671.328 184.915 645.861 323.198 607.436C362.326 596.563 385.369 596.292 398.295 601.494C398.641 639.504 398.853 663 398.853 663C398.853 663 431.053 614.675 398.295 601.494C396.848 442.518 393.042 29.6459 392.456 19.9858C391.728 8.01592 404.069 46.2517 161.905 8.01604Z" fill="#E6C09C" fill-opacity="0.15" stroke="#E6C09C" stroke-opacity="0.25"/>
</svg>