<svg width="23" height="20" viewBox="0 0 23 20" fill="none" xmlns="http://www.w3.org/2000/svg">
<path d="M22.0417 8.75H0.958333C0.42906 8.75 0 9.30964 0 10C0 10.6904 0.42906 11.25 0.958333 11.25H22.0417C22.5709 11.25 23 10.6904 23 10C23 9.30964 22.5709 8.75 22.0417 8.75Z" fill="#333333"/>
<path d="M22.0417 0H0.958333C0.42906 0 0 0.559645 0 1.25C0 1.94036 0.42906 2.5 0.958333 2.5H22.0417C22.5709 2.5 23 1.94036 23 1.25C23 0.559645 22.5709 0 22.0417 0Z" fill="#333333"/>
<path d="M22.0417 17.5H0.958333C0.42906 17.5 0 18.0596 0 18.75C0 19.4404 0.42906 20 0.958333 20H22.0417C22.5709 20 23 19.4404 23 18.75C23 18.0596 22.5709 17.5 22.0417 17.5Z" fill="#333333"/>
</svg>
