<svg width="21" height="20" viewBox="0 0 21 20" fill="none" xmlns="http://www.w3.org/2000/svg">
<g id="instagram">
<g id="Icon">
<path fill-rule="evenodd" clip-rule="evenodd" d="M6.33301 2.49998C4.49206 2.49998 2.99967 3.99236 2.99967 5.83331V14.1666C2.99967 16.0076 4.49206 17.5 6.33301 17.5H14.6663C16.5073 17.5 17.9997 16.0076 17.9997 14.1666V5.83331C17.9997 3.99236 16.5073 2.49998 14.6663 2.49998H6.33301ZM1.33301 5.83331C1.33301 3.07189 3.57158 0.833313 6.33301 0.833313H14.6663C17.4278 0.833313 19.6663 3.07189 19.6663 5.83331V14.1666C19.6663 16.9281 17.4278 19.1666 14.6663 19.1666H6.33301C3.57158 19.1666 1.33301 16.9281 1.33301 14.1666V5.83331Z" fill="black"/>
<path fill-rule="evenodd" clip-rule="evenodd" d="M10.9024 7.49097C10.3823 7.41383 9.85105 7.50268 9.3843 7.74487C8.91755 7.98705 8.53905 8.37025 8.30264 8.83995C8.06623 9.30965 7.98394 9.84194 8.06748 10.3611C8.15102 10.8803 8.39614 11.3599 8.76796 11.7317C9.13979 12.1035 9.61939 12.3486 10.1386 12.4322C10.6577 12.5157 11.19 12.4334 11.6597 12.197C12.1294 11.9606 12.5126 11.5821 12.7548 11.1153C12.997 10.6486 13.0858 10.1174 13.0087 9.59721C12.93 9.06664 12.6828 8.57543 12.3035 8.19616C11.9242 7.81688 11.433 7.56964 10.9024 7.49097ZM8.61669 6.26549C9.3946 5.86185 10.28 5.71377 11.1469 5.84233C12.0312 5.97346 12.8499 6.38552 13.482 7.01765C14.1141 7.64977 14.5262 8.46845 14.6573 9.35274C14.7859 10.2197 14.6378 11.1051 14.2342 11.883C13.8305 12.6609 13.1919 13.2917 12.409 13.6857C11.6262 14.0798 10.739 14.2169 9.87377 14.0777C9.0085 13.9384 8.20916 13.5299 7.58945 12.9102C6.96974 12.2905 6.56121 11.4912 6.42198 10.6259C6.28275 9.76061 6.41989 8.87347 6.81392 8.09063C7.20794 7.3078 7.83877 6.66914 8.61669 6.26549Z" fill="black"/>
<path fill-rule="evenodd" clip-rule="evenodd" d="M14.2497 5.41665C14.2497 4.95641 14.6228 4.58331 15.083 4.58331H15.0913C15.5516 4.58331 15.9247 4.95641 15.9247 5.41665C15.9247 5.87688 15.5516 6.24998 15.0913 6.24998H15.083C14.6228 6.24998 14.2497 5.87688 14.2497 5.41665Z" fill="black"/>
</g>
</g>
</svg>
