<svg width="15" height="14" viewBox="0 0 15 14" fill="none" xmlns="http://www.w3.org/2000/svg">
<g id="Frame 29">
<g id="Group 3">
<path id="Vector" d="M10.7272 2.40771C9.89555 3.85038 9.45529 5.51054 9.45529 7.20383C9.45529 8.89712 9.89555 10.5573 10.7272 11.9999" stroke="#D97508" stroke-width="4" stroke-linecap="round" stroke-linejoin="round"/>
<path id="Vector_2" d="M11.5594 4.39806C10.9383 4.39806 10.4347 3.86123 10.4347 3.19903C10.4347 2.53682 10.9383 2 11.5594 2C12.1806 2 12.6842 2.53682 12.6842 3.19903C12.6842 3.86123 12.1806 4.39806 11.5594 4.39806Z" stroke="#D97508" stroke-width="4" stroke-linecap="round" stroke-linejoin="round"/>
<path id="Vector_3" d="M3.95605 2.40771C3.12443 3.85038 2.68417 5.51054 2.68417 7.20383C2.68417 8.89712 3.12443 10.5573 3.95605 11.9999" stroke="#D97508" stroke-width="4" stroke-linecap="round" stroke-linejoin="round"/>
<path id="Vector_4" d="M4.78845 4.39806C4.16727 4.39806 3.6637 3.86123 3.6637 3.19903C3.6637 2.53682 4.16727 2 4.78845 2C5.40964 2 5.91321 2.53682 5.91321 3.19903C5.91321 3.86123 5.40964 4.39806 4.78845 4.39806Z" stroke="#D97508" stroke-width="4" stroke-linecap="round" stroke-linejoin="round"/>
</g>
</g>
</svg>
