<svg width="18" height="18" viewBox="0 0 18 18" fill="none" xmlns="http://www.w3.org/2000/svg">
<path opacity="0.4" d="M13.5 14.1451H12.93C12.33 14.1451 11.76 14.3776 11.34 14.7976L10.0575 16.0651C9.4725 16.6426 8.51999 16.6426 7.93499 16.0651L6.6525 14.7976C6.2325 14.3776 5.655 14.1451 5.0625 14.1451H4.5C3.255 14.1451 2.25 13.1476 2.25 11.9176V3.73507C2.25 2.50507 3.255 1.50757 4.5 1.50757H13.5C14.745 1.50757 15.75 2.50507 15.75 3.73507V11.9176C15.75 13.1401 14.745 14.1451 13.5 14.1451Z" fill="#292D32"/>
<path d="M9.21 11.22C9.0975 11.2575 8.91 11.2575 8.79 11.22C7.815 10.8825 5.625 9.49501 5.625 7.13251C5.625 6.09001 6.465 5.25 7.5 5.25C8.115 5.25 8.655 5.5425 9 6C9.345 5.5425 9.885 5.25 10.5 5.25C11.535 5.25 12.375 6.09001 12.375 7.13251C12.3675 9.49501 10.185 10.8825 9.21 11.22Z" fill="#292D32"/>
</svg>
