<svg width="21" height="20" viewBox="0 0 21 20" fill="none" xmlns="http://www.w3.org/2000/svg">
<g id="linkedin">
<g id="Icon">
<path fill-rule="evenodd" clip-rule="evenodd" d="M13.833 7.49998C12.7279 7.49998 11.6681 7.93897 10.8867 8.72037C10.1053 9.50177 9.66634 10.5616 9.66634 11.6666V16.6666H11.333V11.6666C11.333 11.0036 11.5964 10.3677 12.0652 9.89888C12.5341 9.43004 13.17 9.16665 13.833 9.16665C14.496 9.16665 15.1319 9.43004 15.6008 9.89888C16.0696 10.3677 16.333 11.0036 16.333 11.6666V16.6666H17.9997V11.6666C17.9997 10.5616 17.5607 9.50177 16.7793 8.72037C15.9979 7.93897 14.9381 7.49998 13.833 7.49998ZM9.70822 7.54186C10.8022 6.4479 12.2859 5.83331 13.833 5.83331C15.3801 5.83331 16.8638 6.44789 17.9578 7.54186C19.0518 8.63582 19.6663 10.1196 19.6663 11.6666V17.5C19.6663 17.9602 19.2932 18.3333 18.833 18.3333H15.4997C15.0394 18.3333 14.6663 17.9602 14.6663 17.5V11.6666C14.6663 11.4456 14.5785 11.2337 14.4223 11.0774C14.266 10.9211 14.054 10.8333 13.833 10.8333C13.612 10.8333 13.4 10.9211 13.2438 11.0774C13.0875 11.2337 12.9997 11.4456 12.9997 11.6666V17.5C12.9997 17.9602 12.6266 18.3333 12.1663 18.3333H8.83301C8.37277 18.3333 7.99967 17.9602 7.99967 17.5V11.6666C7.99967 10.1195 8.61426 8.63582 9.70822 7.54186Z" fill="black"/>
<path fill-rule="evenodd" clip-rule="evenodd" d="M1.33301 7.49998C1.33301 7.03974 1.7061 6.66665 2.16634 6.66665H5.49967C5.95991 6.66665 6.33301 7.03974 6.33301 7.49998V17.5C6.33301 17.9602 5.95991 18.3333 5.49967 18.3333H2.16634C1.7061 18.3333 1.33301 17.9602 1.33301 17.5V7.49998ZM2.99967 8.33331V16.6666H4.66634V8.33331H2.99967Z" fill="black"/>
<path fill-rule="evenodd" clip-rule="evenodd" d="M3.83301 2.49998C3.37277 2.49998 2.99967 2.87308 2.99967 3.33331C2.99967 3.79355 3.37277 4.16665 3.83301 4.16665C4.29324 4.16665 4.66634 3.79355 4.66634 3.33331C4.66634 2.87308 4.29324 2.49998 3.83301 2.49998ZM1.33301 3.33331C1.33301 1.9526 2.4523 0.833313 3.83301 0.833313C5.21372 0.833313 6.33301 1.9526 6.33301 3.33331C6.33301 4.71403 5.21372 5.83331 3.83301 5.83331C2.4523 5.83331 1.33301 4.71403 1.33301 3.33331Z" fill="black"/>
</g>
</g>
</svg>
