<svg width="14" height="14" viewBox="0 0 14 14" fill="none" xmlns="http://www.w3.org/2000/svg">
<g id="Frame 28">
<g id="Group 3">
<path id="Vector" d="M3.95703 2.39136C4.78866 3.77589 5.22891 5.36915 5.22891 6.99421C5.22891 8.61926 4.78866 10.2125 3.95703 11.5971" stroke="#D97508" stroke-width="4" stroke-linecap="round" stroke-linejoin="round"/>
<path id="Vector_2" d="M3.12476 4.30142C3.74594 4.30142 4.24951 3.78623 4.24951 3.15071C4.24951 2.51519 3.74594 2 3.12476 2C2.50357 2 2 2.51519 2 3.15071C2 3.78623 2.50357 4.30142 3.12476 4.30142Z" stroke="#D97508" stroke-width="4" stroke-linecap="round" stroke-linejoin="round"/>
<path id="Vector_3" d="M10.7281 2.39136C11.5598 3.77589 12 5.36915 12 6.99421C12 8.61926 11.5598 10.2125 10.7281 11.5971" stroke="#D97508" stroke-width="4" stroke-linecap="round" stroke-linejoin="round"/>
<path id="Vector_4" d="M9.89575 4.30142C10.5169 4.30142 11.0205 3.78623 11.0205 3.15071C11.0205 2.51519 10.5169 2 9.89575 2C9.27457 2 8.771 2.51519 8.771 3.15071C8.771 3.78623 9.27457 4.30142 9.89575 4.30142Z" stroke="#D97508" stroke-width="4" stroke-linecap="round" stroke-linejoin="round"/>
</g>
</g>
</svg>
