<svg xmlns="http://www.w3.org/2000/svg" width="178" height="131" viewBox="0 0 178 131" fill="none">
  <path d="M159.846 122.039H148.079V122.128H159.846V122.039Z" fill="#EBEBEB"/>
  <path d="M117.68 123.006H114.593V123.095H117.68V123.006Z" fill="#EBEBEB"/>
  <path d="M147.724 118.742H140.906V118.831H147.724V118.742Z" fill="#EBEBEB"/>
  <path d="M33.9838 119.339H18.6387V119.428H33.9838V119.339Z" fill="#EBEBEB"/>
  <path d="M39.3984 119.339H37.1494V119.428H39.3984V119.339Z" fill="#EBEBEB"/>
  <path d="M79.994 120.839H46.7102V120.927H79.994V120.839Z" fill="#EBEBEB"/>
  <path d="M84.2043 100.477H15.6044C15.0664 100.477 14.5503 100.263 14.1699 99.8826C13.7894 99.5022 13.5757 98.9861 13.5757 98.4481V2.01096C13.5804 1.47599 13.7962 0.96453 14.1761 0.587905C14.5561 0.211279 15.0694 -2.05096e-05 15.6044 1.49313e-09H84.2043C84.7424 1.49314e-09 85.2584 0.21374 85.6389 0.594199C86.0193 0.974658 86.2331 1.49067 86.2331 2.02872V98.4481C86.2331 98.9861 86.0193 99.5022 85.6389 99.8826C85.2584 100.263 84.7424 100.477 84.2043 100.477ZM15.6044 0.0710588C15.0902 0.071998 14.5973 0.276681 14.2337 0.640279C13.8701 1.00388 13.6654 1.49675 13.6645 2.01096V98.4481C13.6654 98.9623 13.8701 99.4552 14.2337 99.8188C14.5973 100.182 15.0902 100.387 15.6044 100.388H84.2043C84.7185 100.387 85.2114 100.182 85.575 99.8188C85.9386 99.4552 86.1433 98.9623 86.1442 98.4481V2.01096C86.1433 1.49675 85.9386 1.00388 85.575 0.640279C85.2114 0.276681 84.7185 0.071998 84.2043 0.0710588H15.6044Z" fill="#EBEBEB"/>
  <path d="M161.058 100.477H92.4508C91.9131 100.476 91.3976 100.262 91.0174 99.8816C90.6371 99.5013 90.4231 98.9858 90.4221 98.4481V2.01096C90.4277 1.47628 90.6438 0.965358 91.0236 0.588931C91.4033 0.212504 91.9161 0.000905389 92.4508 0H161.058C161.592 0.00184912 162.103 0.213975 162.482 0.5904C162.86 0.966825 163.075 1.47722 163.079 2.01096V98.4481C163.079 98.9849 162.867 99.4998 162.488 99.8801C162.109 100.26 161.595 100.475 161.058 100.477ZM92.4508 0.0710588C91.9366 0.071998 91.4438 0.276681 91.0802 0.640279C90.7166 1.00388 90.5119 1.49675 90.5109 2.01096V98.4481C90.5119 98.9623 90.7166 99.4552 91.0802 99.8188C91.4438 100.182 91.9366 100.387 92.4508 100.388H161.058C161.572 100.387 162.065 100.182 162.429 99.8188C162.792 99.4552 162.997 98.9623 162.998 98.4481V2.01096C162.997 1.49675 162.792 1.00388 162.429 0.640279C162.065 0.276681 161.572 0.071998 161.058 0.0710588H92.4508Z" fill="#EBEBEB"/>
  <path d="M177.646 116.323H0V116.412H177.646V116.323Z" fill="#EBEBEB"/>
  <path d="M68.3476 14.3359H25.4282V116.209H68.3476V14.3359Z" fill="#EBEBEB"/>
  <path d="M66.5215 16.1802H27.251V116.209H66.5215V16.1802Z" fill="#F5F5F5"/>
  <path d="M45.9679 29.3755H30.2249V66.0097H45.9679V29.3755Z" fill="#FAFAFA"/>
  <path d="M63.7608 29.3755H48.0178V66.0097H63.7608V29.3755Z" fill="#FAFAFA"/>
  <path d="M63.7609 77.0913H30.2249V113.726H63.7609V77.0913Z" fill="#FAFAFA"/>
  <path d="M36.3643 18.8303H57.6215C59.2498 18.8303 60.8114 19.4772 61.9627 20.6285C63.1141 21.7799 63.7609 23.3415 63.7609 24.9698V27.4746H30.2249V24.9769C30.2239 24.17 30.382 23.3709 30.6902 22.6252C30.9983 21.8795 31.4504 21.2019 32.0205 20.631C32.5907 20.0602 33.2679 19.6073 34.0132 19.2983C34.7585 18.9894 35.5575 18.8303 36.3643 18.8303Z" fill="#FAFAFA"/>
  <path d="M33.0885 67.6587H30.2249V75.1198H33.0885V67.6587Z" fill="#E6E6E6"/>
  <path d="M33.0885 75.123H33.6499V67.6619H33.0885V75.123Z" fill="#E0E0E0"/>
  <path d="M32.1399 70.5895C32.1406 70.8285 32.0703 71.0624 31.938 71.2615C31.8057 71.4607 31.6173 71.6161 31.3966 71.708C31.1759 71.8 30.9329 71.8244 30.6984 71.7782C30.4638 71.732 30.2482 71.6172 30.0789 71.4484C29.9097 71.2796 29.7942 71.0644 29.7474 70.83C29.7005 70.5956 29.7242 70.3525 29.8155 70.1315C29.9068 69.9106 30.0616 69.7217 30.2604 69.5888C30.4591 69.456 30.6928 69.385 30.9319 69.385C31.2516 69.385 31.5584 69.5118 31.7848 69.7376C32.0112 69.9633 32.1389 70.2697 32.1399 70.5895Z" fill="#E0E0E0"/>
  <path d="M31.9089 72.679H31.2871V74.1889H31.9089V72.679Z" fill="#E0E0E0"/>
  <path d="M29.8695 72.2771C30.8016 72.2771 31.5572 71.5216 31.5572 70.5895C31.5572 69.6574 30.8016 68.9019 29.8695 68.9019C28.9375 68.9019 28.1819 69.6574 28.1819 70.5895C28.1819 71.5216 28.9375 72.2771 29.8695 72.2771Z" fill="#EBEBEB"/>
  <path d="M134.404 87.1105C134.404 87.1105 139.307 82.4917 139.225 79.454C139.143 76.4162 136.162 83.5327 136.091 82.0369C136.02 80.5412 139.481 76.2457 139.626 73.3109C139.772 70.3762 136.105 78.5764 135.91 77.2192C135.715 75.8619 139.268 69.7403 139.239 67.6085C139.211 65.4767 136.134 73.0125 135.686 71.6802C135.239 70.3478 138.248 65.3666 137.463 61.6396C136.678 57.9126 135.057 67.6796 134.809 66.4502C134.56 65.2209 136.642 58.8363 135.164 56.2924C133.686 53.7485 134.098 63.1816 133.604 62.0837C133.11 60.9858 132.798 55.5783 130.925 53.7379C129.053 51.8975 131.419 59.1845 130.844 59.554C130.268 59.9235 127.596 54.4946 126.875 55.525C126.154 56.5553 130.673 62.3857 130.716 63.7784C130.758 65.1712 127.07 61.4513 126.74 62.9613C126.41 64.4713 131.874 66.8482 132.155 68.2907C132.435 69.7332 127.607 67.1502 127.628 68.646C127.65 70.1417 132.222 70.934 132.496 72.6252C132.769 74.3164 128.015 71.3995 128.278 73.3856C128.541 75.3716 131.735 74.9808 132.101 76.9385C132.467 78.8961 128.797 76.6649 128.936 78.5231C129.074 80.3813 132.741 80.5873 133.125 82.005C133.508 83.4226 129.625 81.3441 129.732 82.8506C129.838 84.357 133.64 84.5275 134.404 87.1105Z" fill="#E0E0E0"/>
  <path d="M133.999 93.6835C134.653 90.2632 134.997 86.791 135.029 83.3089C135.214 75.7447 134.262 68.1166 131.743 60.9646C131.558 60.4423 130.709 60.6306 130.894 61.1564C133.381 68.2623 134.34 75.7838 134.159 83.2805C134.134 86.6905 133.802 90.0913 133.167 93.4419C133.057 93.9855 133.878 94.2484 133.999 93.7012V93.6835Z" fill="#F0F0F0"/>
  <path d="M135.839 88.6739C135.839 88.6739 132.432 82.1508 133.519 77.7309C134.606 73.3111 135.402 83.6004 135.91 81.1382C136.418 78.676 134.301 73.9009 136.273 70.3479C138.244 66.795 136.418 77.0132 137.722 74.7678C139.026 72.5223 137.498 66.795 139.317 64.6135C141.137 62.432 139.897 69.3247 140.763 68.2375C141.63 67.1503 141.417 62.0803 142.796 60.9185C144.174 59.7567 142.938 65.7753 143.663 64.6135C144.387 63.4517 146.054 58.1649 148.374 57.5077C150.694 56.8504 146.853 60.7657 148.374 60.4033C149.894 60.0409 153.373 59.245 153.664 60.8403C153.955 62.4356 146.345 64.1729 145.475 66.1306C144.604 68.0883 148.953 64.6064 149.738 66.056C150.523 67.5056 143.069 69.5343 142.49 71.7087C141.911 73.8831 148.651 69.8967 148.505 72.1457C148.36 74.3947 140.749 74.8246 140.387 76.7823C140.024 78.7399 146.622 74.6079 146.402 76.5656C146.182 78.5232 139.591 80.0439 139.158 82.1437C138.724 84.2434 144.011 80.1896 144.156 81.8559C144.302 83.5222 135.839 88.6739 135.839 88.6739Z" fill="#EBEBEB"/>
  <path d="M131.021 88.4677C131.021 88.4677 134.318 82.5876 133.334 79.7168C132.35 76.8461 131.632 84.5595 131.103 83.1383C130.574 81.7171 132.606 76.6009 131.867 73.7586C131.128 70.9163 130.09 79.8341 129.483 78.5764C128.875 77.3186 130.453 70.4402 129.788 68.415C129.124 66.3898 128.438 74.5012 127.611 73.3607C126.783 72.2202 128.168 66.571 126.317 63.2419C124.466 59.9128 125.831 69.7367 125.223 68.6282C124.615 67.5197 124.697 60.8117 122.53 58.8292C120.363 56.8467 123.596 65.7183 122.775 64.8194C121.954 63.9205 120.057 58.8541 117.719 57.6567C115.381 56.4594 119.819 62.709 119.382 63.2313C118.945 63.7535 114.763 59.3763 114.39 60.5737C114.017 61.771 120.075 65.9848 120.522 67.3029C120.97 68.6211 116.348 66.1695 116.483 67.7115C116.618 69.2535 122.548 69.8859 123.233 71.1792C123.919 72.4724 118.554 71.4527 119.02 72.8668C119.485 74.2809 124.086 73.6769 124.853 75.2082C125.621 76.7395 120.213 75.3787 121.055 77.1943C121.897 79.0098 124.832 77.6846 125.767 79.4433C126.701 81.202 122.533 80.1539 123.223 81.9019C123.912 83.6499 127.468 82.7333 128.257 83.9733C129.046 85.2132 124.704 84.3854 125.273 85.7924C125.841 87.1993 129.522 86.2436 131.021 88.4677Z" fill="#EBEBEB"/>
  <path d="M132.602 94.8633C132.197 91.404 131.484 87.9879 130.471 84.6557C128.382 77.3829 125.195 70.3871 120.65 64.3116C120.32 63.8711 119.563 64.3116 119.901 64.7522C124.402 70.7709 127.564 77.6778 129.632 84.8867C130.628 88.1431 131.33 91.4819 131.732 94.8633C131.785 95.414 132.656 95.4175 132.602 94.8633Z" fill="#F0F0F0"/>
  <path d="M135.693 94.0354C135.83 91.0089 136.186 87.9964 136.759 85.0216C137.804 79.2765 139.47 73.4071 142.682 68.472C144.512 65.6546 146.91 63.2421 149.976 61.8032C150.484 61.5652 150.044 60.8155 149.539 61.05C144.053 63.6294 140.767 69.1187 138.681 74.5831C136.745 79.6709 135.672 85.0891 135.103 90.4931C134.979 91.6691 134.869 92.8522 134.83 94.046C134.812 94.6074 135.679 94.6038 135.7 94.046L135.693 94.0354Z" fill="#F5F5F5"/>
  <path d="M142.792 92.3474H124.822L126.85 111.572V116.209H140.764V111.572L142.792 92.3474Z" fill="#EBEBEB"/>
  <path d="M146.907 33.2234H133.999V43.399H146.907V33.2234Z" fill="#F0F0F0"/>
  <path d="M147.603 33.2234H146.906V43.399H147.603V33.2234Z" fill="#E0E0E0"/>
  <path d="M145.592 34.2612H135.317V42.3619H145.592V34.2612Z" fill="#FAFAFA"/>
  <path d="M144.746 34.9287H136.163V41.697H144.746V34.9287Z" fill="#EBEBEB"/>
  <path d="M131.337 16.7092H117.129V34.7261H131.337V16.7092Z" fill="#EBEBEB"/>
  <path d="M132.016 16.7092H131.337V34.7261H132.016V16.7092Z" fill="#E0E0E0"/>
  <path d="M129.888 18.5461H118.579V32.8893H129.888V18.5461Z" fill="#F5F5F5"/>
  <path d="M128.957 19.7292H119.51V31.7133H128.957V19.7292Z" fill="#FAFAFA"/>
  <path d="M126.104 23.9574C126.104 23.9574 124.434 26.3201 123.574 26.281C122.789 26.2455 121.443 23.9574 121.443 23.9574C121.443 23.9574 123.113 21.5947 123.972 21.6338C124.768 21.6729 126.104 23.9574 126.104 23.9574Z" fill="#EBEBEB"/>
  <path d="M121.734 29.1874C121.24 28.2352 123.819 26.2349 124.892 26.2811C125.876 26.3237 127.927 28.2814 127.543 29.1874C126.981 30.5268 122.402 30.4771 121.734 29.1874Z" fill="#F0F0F0"/>
  <path d="M142.956 27.8549C146.497 27.8549 149.369 23.8511 149.369 18.9122C149.369 13.9733 146.497 9.96948 142.956 9.96948C139.414 9.96948 136.542 13.9733 136.542 18.9122C136.542 23.8511 139.414 27.8549 142.956 27.8549Z" fill="#E0E0E0"/>
  <path d="M142.192 27.8549C145.733 27.8549 148.605 23.8511 148.605 18.9122C148.605 13.9733 145.733 9.96948 142.192 9.96948C138.65 9.96948 135.779 13.9733 135.779 18.9122C135.779 23.8511 138.65 27.8549 142.192 27.8549Z" fill="#EBEBEB"/>
  <path d="M142.192 26.5299C145.21 26.5299 147.656 23.1194 147.656 18.9124C147.656 14.7054 145.21 11.2949 142.192 11.2949C139.174 11.2949 136.727 14.7054 136.727 18.9124C136.727 23.1194 139.174 26.5299 142.192 26.5299Z" fill="#E6E6E6"/>
  <path d="M142.192 25.7198C144.888 25.7198 147.073 22.672 147.073 18.9124C147.073 15.1528 144.888 12.105 142.192 12.105C139.495 12.105 137.31 15.1528 137.31 18.9124C137.31 22.672 139.495 25.7198 142.192 25.7198Z" fill="#FAFAFA"/>
  <path d="M140.66 22.6108C140.153 22.1252 139.757 21.5364 139.497 20.8842C139.237 20.2321 139.12 19.5317 139.154 18.8305C139.154 18.8305 141.168 18.596 141.108 21.9713C141.108 21.9713 143.378 19.6157 142.707 18.1199C141.662 15.7892 141.662 15.7892 142.401 14.3325C142.401 14.3325 144.38 15.1319 143.467 17.825C143.458 18.5246 143.363 19.2204 143.183 19.8964C143.183 19.8964 145.176 17.9885 145.816 19.2391C145.816 19.2391 144.75 21.2607 143.183 20.4187C143.183 20.408 141.406 23.5062 140.66 22.6108Z" fill="#EBEBEB"/>
  <path d="M87.1106 131C125.156 131 155.998 129.199 155.998 126.978C155.998 124.757 125.156 122.956 87.1106 122.956C49.065 122.956 18.2229 124.757 18.2229 126.978C18.2229 129.199 49.065 131 87.1106 131Z" fill="#F5F5F5"/>
  <path d="M105.959 92.8484C105.959 92.5499 105.941 92.255 105.916 91.9637L107.65 91.0008C107.521 90.1787 107.306 89.3724 107.007 88.5955L105.025 88.631C104.776 88.0941 104.48 87.5805 104.14 87.0962L105.16 85.3979C104.631 84.7511 104.035 84.1617 103.383 83.6392L101.685 84.6589C101.202 84.3179 100.689 84.0206 100.154 83.7706L100.186 81.7916C99.4098 81.4925 98.6048 81.2757 97.7837 81.145L96.8209 82.8788C96.526 82.854 96.2346 82.8398 95.9362 82.8398C95.6377 82.8398 95.3429 82.8398 95.0515 82.8788L94.0887 81.145C93.2664 81.2753 92.4601 81.492 91.6833 81.7916L91.7153 83.7706C91.1799 84.0213 90.6675 84.3186 90.184 84.6589L88.4857 83.6392C87.8327 84.1606 87.2372 84.7502 86.7092 85.3979L87.7254 87.0962C87.3854 87.5805 87.0894 88.0941 86.8407 88.631L84.8617 88.5955C84.5621 89.3723 84.3453 90.1785 84.2151 91.0008L85.9489 91.9637C85.924 92.255 85.9098 92.5499 85.9098 92.8484C85.9098 93.1468 85.9098 93.4417 85.9489 93.733L84.2151 94.6959C84.3454 95.517 84.5621 96.3221 84.8617 97.0977L86.8407 97.0657C87.0886 97.6019 87.3847 98.1144 87.7254 98.597L86.7092 100.295C87.2373 100.948 87.8328 101.544 88.4857 102.072L90.184 101.052C90.6683 101.391 91.1806 101.688 91.7153 101.94L91.6833 103.919C92.4597 104.219 93.2661 104.435 94.0887 104.562L95.0515 102.829C95.3429 102.857 95.6377 102.871 95.9362 102.871C96.2346 102.871 96.526 102.871 96.8209 102.829L97.7837 104.562C98.605 104.434 99.4102 104.219 100.186 103.919L100.154 101.94C100.689 101.689 101.201 101.392 101.685 101.052L103.383 102.072C104.035 101.543 104.63 100.947 105.16 100.295L104.14 98.597C104.481 98.1144 104.777 97.6019 105.025 97.0657L107.007 97.0977C107.306 96.322 107.521 95.5169 107.65 94.6959L105.916 93.733C105.941 93.4417 105.959 93.1468 105.959 92.8484ZM95.9504 99.6416C94.6058 99.6423 93.2913 99.2441 92.173 98.4976C91.0547 97.751 90.183 96.6895 89.6682 95.4475C89.1533 94.2054 89.0184 92.8385 89.2805 91.5197C89.5427 90.2009 90.1901 88.9895 91.1408 88.0388C92.0916 87.088 93.303 86.4406 94.6217 86.1785C95.9405 85.9163 97.3074 86.0512 98.5495 86.5661C99.7916 87.081 100.853 87.9527 101.6 89.0709C102.346 90.1892 102.744 91.5038 102.744 92.8484C102.744 94.65 102.028 96.3779 100.754 97.6519C99.48 98.9258 97.7521 99.6416 95.9504 99.6416Z" fill="#A63F0E"/>
  <path opacity="0.5" d="M105.959 92.8484C105.959 92.5499 105.941 92.255 105.916 91.9637L107.65 91.0008C107.521 90.1787 107.306 89.3724 107.007 88.5955L105.025 88.631C104.776 88.0941 104.48 87.5805 104.14 87.0962L105.16 85.3979C104.631 84.7511 104.035 84.1617 103.383 83.6392L101.685 84.6589C101.202 84.3179 100.689 84.0206 100.154 83.7706L100.186 81.7916C99.4098 81.4925 98.6048 81.2757 97.7837 81.145L96.8209 82.8788C96.526 82.854 96.2346 82.8398 95.9362 82.8398C95.6377 82.8398 95.3429 82.8398 95.0515 82.8788L94.0887 81.145C93.2664 81.2753 92.4601 81.492 91.6833 81.7916L91.7153 83.7706C91.1799 84.0213 90.6675 84.3186 90.184 84.6589L88.4857 83.6392C87.8327 84.1606 87.2372 84.7502 86.7092 85.3979L87.7254 87.0962C87.3854 87.5805 87.0894 88.0941 86.8407 88.631L84.8617 88.5955C84.5621 89.3723 84.3453 90.1785 84.2151 91.0008L85.9489 91.9637C85.924 92.255 85.9098 92.5499 85.9098 92.8484C85.9098 93.1468 85.9098 93.4417 85.9489 93.733L84.2151 94.6959C84.3454 95.517 84.5621 96.3221 84.8617 97.0977L86.8407 97.0657C87.0886 97.6019 87.3847 98.1144 87.7254 98.597L86.7092 100.295C87.2373 100.948 87.8328 101.544 88.4857 102.072L90.184 101.052C90.6683 101.391 91.1806 101.688 91.7153 101.94L91.6833 103.919C92.4597 104.219 93.2661 104.435 94.0887 104.562L95.0515 102.829C95.3429 102.857 95.6377 102.871 95.9362 102.871C96.2346 102.871 96.526 102.871 96.8209 102.829L97.7837 104.562C98.605 104.434 99.4102 104.219 100.186 103.919L100.154 101.94C100.689 101.689 101.201 101.392 101.685 101.052L103.383 102.072C104.035 101.543 104.63 100.947 105.16 100.295L104.14 98.597C104.481 98.1144 104.777 97.6019 105.025 97.0657L107.007 97.0977C107.306 96.322 107.521 95.5169 107.65 94.6959L105.916 93.733C105.941 93.4417 105.959 93.1468 105.959 92.8484ZM95.9504 99.6416C94.6058 99.6423 93.2913 99.2441 92.173 98.4976C91.0547 97.751 90.183 96.6895 89.6682 95.4475C89.1533 94.2054 89.0184 92.8385 89.2805 91.5197C89.5427 90.2009 90.1901 88.9895 91.1408 88.0388C92.0916 87.088 93.303 86.4406 94.6217 86.1785C95.9405 85.9163 97.3074 86.0512 98.5495 86.5661C99.7916 87.081 100.853 87.9527 101.6 89.0709C102.346 90.1892 102.744 91.5038 102.744 92.8484C102.744 94.65 102.028 96.3779 100.754 97.6519C99.48 98.9258 97.7521 99.6416 95.9504 99.6416Z" fill="white"/>
  <path d="M52.7289 40.5782C52.7289 40.3615 52.7289 40.1483 52.6969 39.9351L53.9582 39.2245C53.8628 38.6272 53.7056 38.0414 53.4892 37.4765L52.0503 37.5014C51.8697 37.1114 51.6532 36.7391 51.4037 36.3893L52.1462 35.1529C51.7655 34.6833 51.3368 34.2546 50.8672 33.8738L49.6308 34.6128C49.28 34.3657 48.9078 34.1505 48.5187 33.9698L48.54 32.5486C47.9775 32.3285 47.3925 32.1712 46.7955 32.0796L46.0849 33.3373C45.8718 33.3196 45.6586 33.3089 45.4419 33.3089C45.2251 33.3089 45.0084 33.3089 44.7988 33.3373L44.0882 32.0796C43.49 32.1712 42.9038 32.3285 42.3401 32.5486L42.365 33.9698C41.9747 34.1505 41.6014 34.3657 41.2494 34.6128L40.0165 33.8738C39.5458 34.2545 39.1159 34.6832 38.7339 35.1529L39.4765 36.3893C39.2282 36.74 39.0118 37.1121 38.8299 37.5014L37.4087 37.4765C37.1923 38.0414 37.0351 38.6272 36.9397 39.2245L38.201 39.9351C38.201 40.1483 38.1726 40.3615 38.1726 40.5782C38.1726 40.7949 38.1726 41.0081 38.201 41.2213L36.9504 41.9248C37.0453 42.5222 37.2025 43.1081 37.4193 43.6728L38.8405 43.6479C39.0232 44.0379 39.2396 44.4112 39.4871 44.7635L38.7446 45.9964C39.1266 46.4661 39.5565 46.8947 40.0272 47.2755L41.2601 46.5365C41.612 46.7836 41.9854 46.9988 42.3757 47.1795L42.3508 48.6185C42.9145 48.8385 43.5007 48.9958 44.0988 49.0875L44.8094 47.8297C45.0191 47.8297 45.2358 47.8581 45.4525 47.8581C45.6692 47.8581 45.8824 47.8581 46.0956 47.8297L46.8062 49.0875C47.4032 48.9958 47.9882 48.8385 48.5507 48.6185L48.5293 47.1795C48.9185 46.9988 49.2907 46.7836 49.6414 46.5365L50.8778 47.2755C51.3474 46.8947 51.7761 46.466 52.1569 45.9964L51.4037 44.7671C51.6526 44.4156 51.869 44.0422 52.0503 43.6515L53.4892 43.6763C53.7061 43.1116 53.8632 42.5257 53.9582 41.9283L52.6969 41.2177C52.7147 41.0081 52.7289 40.7949 52.7289 40.5782ZM45.4525 43.4454C44.8854 43.4454 44.3311 43.2772 43.8596 42.9622C43.3881 42.6471 43.0206 42.1993 42.8036 41.6754C42.5865 41.1515 42.5298 40.575 42.6404 40.0188C42.751 39.4626 43.0241 38.9518 43.4251 38.5508C43.8261 38.1498 44.337 37.8767 44.8931 37.7661C45.4493 37.6554 46.0258 37.7122 46.5497 37.9292C47.0737 38.1462 47.5215 38.5137 47.8365 38.9853C48.1516 39.4568 48.3197 40.0111 48.3197 40.5782C48.3197 41.3386 48.0176 42.0679 47.4799 42.6056C46.9422 43.1433 46.2129 43.4454 45.4525 43.4454Z" fill="#A63F0E"/>
  <path opacity="0.6" d="M52.7289 40.5782C52.7289 40.3615 52.7289 40.1483 52.6969 39.9351L53.9582 39.2245C53.8628 38.6272 53.7056 38.0414 53.4892 37.4765L52.0503 37.5014C51.8697 37.1114 51.6532 36.7391 51.4037 36.3893L52.1462 35.1529C51.7655 34.6833 51.3368 34.2546 50.8672 33.8738L49.6308 34.6128C49.28 34.3657 48.9078 34.1505 48.5187 33.9698L48.54 32.5486C47.9775 32.3285 47.3925 32.1712 46.7955 32.0796L46.0849 33.3373C45.8718 33.3196 45.6586 33.3089 45.4419 33.3089C45.2251 33.3089 45.0084 33.3089 44.7988 33.3373L44.0882 32.0796C43.49 32.1712 42.9038 32.3285 42.3401 32.5486L42.365 33.9698C41.9747 34.1505 41.6014 34.3657 41.2494 34.6128L40.0165 33.8738C39.5458 34.2545 39.1159 34.6832 38.7339 35.1529L39.4765 36.3893C39.2282 36.74 39.0118 37.1121 38.8299 37.5014L37.4087 37.4765C37.1923 38.0414 37.0351 38.6272 36.9397 39.2245L38.201 39.9351C38.201 40.1483 38.1726 40.3615 38.1726 40.5782C38.1726 40.7949 38.1726 41.0081 38.201 41.2213L36.9504 41.9248C37.0453 42.5222 37.2025 43.1081 37.4193 43.6728L38.8405 43.6479C39.0232 44.0379 39.2396 44.4112 39.4871 44.7635L38.7446 45.9964C39.1266 46.4661 39.5565 46.8947 40.0272 47.2755L41.2601 46.5365C41.612 46.7836 41.9854 46.9988 42.3757 47.1795L42.3508 48.6185C42.9145 48.8385 43.5007 48.9958 44.0988 49.0875L44.8094 47.8297C45.0191 47.8297 45.2358 47.8581 45.4525 47.8581C45.6692 47.8581 45.8824 47.8581 46.0956 47.8297L46.8062 49.0875C47.4032 48.9958 47.9882 48.8385 48.5507 48.6185L48.5293 47.1795C48.9185 46.9988 49.2907 46.7836 49.6414 46.5365L50.8778 47.2755C51.3474 46.8947 51.7761 46.466 52.1569 45.9964L51.4037 44.7671C51.6526 44.4156 51.869 44.0422 52.0503 43.6515L53.4892 43.6763C53.7061 43.1116 53.8632 42.5257 53.9582 41.9283L52.6969 41.2177C52.7147 41.0081 52.7289 40.7949 52.7289 40.5782ZM45.4525 43.4454C44.8854 43.4454 44.3311 43.2772 43.8596 42.9622C43.3881 42.6471 43.0206 42.1993 42.8036 41.6754C42.5865 41.1515 42.5298 40.575 42.6404 40.0188C42.751 39.4626 43.0241 38.9518 43.4251 38.5508C43.8261 38.1498 44.337 37.8767 44.8931 37.7661C45.4493 37.6554 46.0258 37.7122 46.5497 37.9292C47.0737 38.1462 47.5215 38.5137 47.8365 38.9853C48.1516 39.4568 48.3197 40.0111 48.3197 40.5782C48.3197 41.3386 48.0176 42.0679 47.4799 42.6056C46.9422 43.1433 46.2129 43.4454 45.4525 43.4454Z" fill="white"/>
  <path d="M95.7194 18.7558H86.4818L77.1909 125.098H86.4285C88.5357 125.06 90.5558 124.251 92.1072 122.825C93.6586 121.398 94.634 119.453 94.849 117.357L102.786 26.4976C102.894 25.5118 102.791 24.5142 102.484 23.5713C102.176 22.6284 101.671 21.7619 101.003 21.0294C100.334 20.2969 99.5171 19.7153 98.6061 19.3232C97.6951 18.9312 96.711 18.7378 95.7194 18.7558Z" fill="#263238"/>
  <path d="M84.5279 125.099H46.5115C45.5194 125.118 44.5345 124.925 43.6226 124.533C42.7108 124.142 41.8929 123.56 41.2235 122.828C40.5541 122.095 40.0486 121.228 39.7406 120.285C39.4327 119.341 39.3294 118.343 39.4377 117.357L47.3891 26.4978C47.6034 24.401 48.5785 22.4554 50.1301 21.0289C51.6817 19.6023 53.7022 18.7937 55.8096 18.756H93.8259C94.8184 18.7364 95.8036 18.9287 96.7159 19.3201C97.6282 19.7115 98.4465 20.2929 99.1163 21.0255C99.7861 21.7582 100.292 22.6253 100.6 23.5689C100.908 24.5126 101.012 25.5111 100.903 26.4978L92.9483 117.357C92.734 119.454 91.7589 121.399 90.2073 122.826C88.6558 124.252 86.6352 125.061 84.5279 125.099Z" fill="#A63F0E"/>
  <path d="M93.6766 20.5325H83.7959C83.472 20.5383 83.1599 20.6545 82.9111 20.8619C82.6624 21.0693 82.4919 21.3555 82.428 21.673L82.364 21.9821C82.193 22.7489 81.7695 23.4361 81.1613 23.9335C80.5531 24.4308 79.7956 24.7095 79.0101 24.7249H69.609C68.865 24.7393 68.1455 24.4591 67.6071 23.9453C67.0688 23.4316 66.7552 22.7259 66.7347 21.9821V21.673C66.7273 21.3683 66.5993 21.079 66.3788 20.8685C66.1583 20.658 65.8634 20.5436 65.5587 20.5502H55.6638C54.04 20.5792 52.4831 21.2023 51.2877 22.3015C50.0922 23.4007 49.341 24.9 49.1761 26.5156L41.214 117.357C41.1306 118.117 41.21 118.885 41.4471 119.612C41.6841 120.339 42.0732 121.007 42.5886 121.571C43.104 122.135 43.7337 122.584 44.4359 122.886C45.138 123.188 45.8965 123.336 46.6607 123.322H84.677C86.3005 123.292 87.857 122.669 89.0523 121.57C90.2476 120.471 90.999 118.972 91.1646 117.357L99.1267 26.4978C99.2102 25.7378 99.1307 24.9687 98.8934 24.2417C98.6562 23.5148 98.2667 22.8469 97.751 22.2824C97.2352 21.7178 96.6051 21.2698 95.9025 20.968C95.1999 20.6663 94.441 20.5178 93.6766 20.5325Z" fill="#A63F0E"/>
  <path opacity="0.7" d="M93.6766 20.5325H83.7959C83.472 20.5383 83.1599 20.6545 82.9111 20.8619C82.6624 21.0693 82.4919 21.3555 82.428 21.673L82.364 21.9821C82.193 22.7489 81.7695 23.4361 81.1613 23.9335C80.5531 24.4308 79.7956 24.7095 79.0101 24.7249H69.609C68.865 24.7393 68.1455 24.4591 67.6071 23.9453C67.0688 23.4316 66.7552 22.7259 66.7347 21.9821V21.673C66.7273 21.3683 66.5993 21.079 66.3788 20.8685C66.1583 20.658 65.8634 20.5436 65.5587 20.5502H55.6638C54.04 20.5792 52.4831 21.2023 51.2877 22.3015C50.0922 23.4007 49.341 24.9 49.1761 26.5156L41.214 117.357C41.1306 118.117 41.21 118.885 41.4471 119.612C41.6841 120.339 42.0732 121.007 42.5886 121.571C43.104 122.135 43.7337 122.584 44.4359 122.886C45.138 123.188 45.8965 123.336 46.6607 123.322H84.677C86.3005 123.292 87.857 122.669 89.0523 121.57C90.2476 120.471 90.999 118.972 91.1646 117.357L99.1267 26.4978C99.2102 25.7378 99.1307 24.9687 98.8934 24.2417C98.6562 23.5148 98.2667 22.8469 97.751 22.2824C97.2352 21.7178 96.6051 21.2698 95.9025 20.968C95.1999 20.6663 94.441 20.5178 93.6766 20.5325Z" fill="white"/>
  <g opacity="0.2">
    <path d="M72.2845 21.538C72.2637 21.7432 72.1682 21.9336 72.0163 22.0731C71.8644 22.2126 71.6665 22.2915 71.4603 22.2947C71.3636 22.2964 71.2676 22.2774 71.1789 22.2389C71.0902 22.2005 71.0107 22.1436 70.9458 22.0719C70.8808 22.0002 70.832 21.9155 70.8024 21.8234C70.7729 21.7314 70.7634 21.634 70.7745 21.538C70.7954 21.3337 70.8905 21.1442 71.0417 21.0054C71.193 20.8665 71.39 20.788 71.5953 20.7848C71.6918 20.7832 71.7875 20.8022 71.8761 20.8404C71.9647 20.8786 72.0442 20.9351 72.1094 21.0063C72.1745 21.0775 72.2238 21.1617 72.254 21.2533C72.2842 21.345 72.2946 21.442 72.2845 21.538Z" fill="black"/>
    <path d="M77.7025 20.7848H75.1124C74.9071 20.788 74.7102 20.8665 74.5589 21.0054C74.4076 21.1442 74.3126 21.3337 74.2917 21.538C74.2811 21.6342 74.2911 21.7316 74.3211 21.8237C74.351 21.9158 74.4002 22.0004 74.4654 22.072C74.5306 22.1436 74.6103 22.2005 74.6992 22.2389C74.7881 22.2773 74.8841 22.2963 74.981 22.2947H77.5711C77.7767 22.2906 77.9737 22.2113 78.1249 22.0719C78.276 21.9325 78.371 21.7426 78.3918 21.538C78.4018 21.442 78.3914 21.345 78.3612 21.2533C78.331 21.1617 78.2817 21.0775 78.2166 21.0063C78.1514 20.9351 78.0719 20.8786 77.9833 20.8404C77.8947 20.8022 77.799 20.7832 77.7025 20.7848Z" fill="black"/>
  </g>
  <path d="M53.4717 24.693H54.2711L54.3386 23.8936H53.5392L53.4717 24.693Z" fill="#A63F0E"/>
  <path d="M55.1378 23.8934L55.0703 24.6928H55.8697L55.9372 23.8934L56.0083 23.094H55.2089L55.1378 23.8934Z" fill="#A63F0E"/>
  <path d="M56.8788 22.2947L56.8078 23.0941L56.7367 23.8935L56.6692 24.6929H57.4686L57.5361 23.8935L57.6072 23.0941L57.6782 22.2947H56.8788Z" fill="#A63F0E"/>
  <path d="M91.2499 22.3481L91.2002 22.9344H90.8093L90.7063 24.1068H91.0971L91.0438 24.6931H94.5612L94.7673 22.3481H91.2499ZM92.6711 24.1068H91.4986L91.6016 22.9344H92.7741L92.6711 24.1068Z" fill="#A63F0E"/>
  <g opacity="0.4">
    <path d="M69.6372 24.707L43.3953 122.281C44.3484 122.968 45.4961 123.333 46.6711 123.322H48.7211L75.2437 24.707H69.6372Z" fill="white"/>
    <path d="M93.6765 20.5321H83.7958C83.4719 20.5378 83.1598 20.6541 82.911 20.8615C82.6623 21.0689 82.4918 21.355 82.4279 21.6725L82.364 21.9817C82.1966 22.7279 81.7903 23.3991 81.2068 23.8935C80.6233 24.3879 79.8944 24.6784 79.1308 24.721L52.6011 123.322H72.835L99.1267 25.5559C99.0417 24.1772 98.4271 22.8846 97.4115 21.9484C96.3958 21.0122 95.0576 20.5047 93.6765 20.5321Z" fill="white"/>
  </g>
  <path d="M62.848 48.32H51.2797C51.0977 48.3238 50.917 48.2885 50.7498 48.2166C50.5826 48.1447 50.4327 48.0379 50.3102 47.9033C50.1877 47.7687 50.0954 47.6094 50.0395 47.4361C49.9837 47.2629 49.9656 47.0797 49.9864 46.8989L51.0914 34.2789C51.1288 33.8945 51.3062 33.5373 51.5899 33.2753C51.8736 33.0132 52.2437 32.8646 52.6298 32.8577H64.2017C64.3835 32.8539 64.5641 32.8891 64.7311 32.9611C64.8982 33.033 65.0479 33.1399 65.1702 33.2746C65.2924 33.4093 65.3843 33.5686 65.4397 33.7419C65.4951 33.9151 65.5128 34.0982 65.4914 34.2789L64.39 46.8989C64.351 47.2832 64.1726 47.64 63.8885 47.9019C63.6044 48.1637 63.2343 48.3125 62.848 48.32Z" fill="white"/>
  <path d="M92.33 59.398H67.058C66.876 59.4018 66.6953 59.3665 66.5281 59.2946C66.3609 59.2227 66.211 59.1159 66.0885 58.9813C65.966 58.8466 65.8737 58.6874 65.8179 58.5141C65.762 58.3409 65.7439 58.1577 65.7647 57.9769L67.8396 34.2646C67.8771 33.8803 68.0545 33.5231 68.3382 33.261C68.6218 32.999 68.9919 32.8504 69.3781 32.8435H94.65C94.8318 32.8403 95.0122 32.876 95.1792 32.948C95.3461 33.0201 95.4958 33.127 95.6182 33.2615C95.7406 33.396 95.8329 33.555 95.8889 33.728C95.945 33.901 95.9635 34.0839 95.9433 34.2646L93.8684 57.9769C93.831 58.3612 93.6535 58.7184 93.3699 58.9805C93.0862 59.2425 92.7161 59.3911 92.33 59.398Z" fill="white"/>
  <path d="M90.4291 81.1028H48.4086C48.2268 81.106 48.0464 81.0703 47.8795 80.9982C47.7125 80.9262 47.5629 80.8193 47.4405 80.6848C47.3181 80.5503 47.2258 80.3913 47.1697 80.2183C47.1137 80.0453 47.0951 79.8624 47.1154 79.6816L48.5756 62.9829C48.6146 62.5985 48.793 62.2417 49.0771 61.9799C49.3612 61.718 49.7313 61.5693 50.1176 61.5617H92.1381C92.3199 61.5586 92.5003 61.5942 92.6672 61.6663C92.8342 61.7384 92.9838 61.8452 93.1062 61.9797C93.2286 62.1142 93.3209 62.2733 93.377 62.4462C93.433 62.6192 93.4516 62.8022 93.4313 62.9829L91.9711 79.6816C91.9321 80.066 91.7537 80.4228 91.4696 80.6847C91.1855 80.9465 90.8154 81.0952 90.4291 81.1028Z" fill="white"/>
  <path d="M87.452 115.136H45.4316C45.2498 115.139 45.0694 115.104 44.9024 115.032C44.7355 114.96 44.5858 114.853 44.4634 114.718C44.341 114.584 44.2487 114.425 44.1927 114.252C44.1366 114.079 44.1181 113.896 44.1383 113.715L46.6787 84.6912C46.7162 84.3063 46.8941 83.9486 47.1785 83.6865C47.4629 83.4243 47.8339 83.2761 48.2206 83.2701H90.2446C90.4265 83.2663 90.6071 83.3015 90.7741 83.3734C90.9412 83.4453 91.0909 83.5522 91.2131 83.6869C91.3354 83.8216 91.4273 83.981 91.4827 84.1542C91.5381 84.3275 91.5557 84.5106 91.5344 84.6912L88.9976 113.715C88.9585 114.1 88.7796 114.457 88.4948 114.719C88.2099 114.981 87.8389 115.13 87.452 115.136Z" fill="white"/>
  <path d="M58.3177 45.0156H46.7494C46.5674 45.0194 46.3867 44.9841 46.2195 44.9122C46.0523 44.8403 45.9024 44.7335 45.7799 44.5989C45.6574 44.4643 45.5651 44.305 45.5093 44.1317C45.4534 43.9585 45.4353 43.7753 45.4561 43.5945L46.5611 30.9709C46.5993 30.5863 46.7775 30.229 47.0618 29.967C47.346 29.7051 47.7166 29.5566 48.1031 29.5498H59.6892C59.871 29.5466 60.0514 29.5823 60.2183 29.6543C60.3853 29.7264 60.5349 29.8333 60.6573 29.9678C60.7797 30.1023 60.872 30.2613 60.9281 30.4343C60.9841 30.6073 61.0027 30.7902 60.9824 30.9709L59.8775 43.5945C59.8389 43.9822 59.6582 44.3418 59.3702 44.6042C59.0822 44.8666 58.7073 45.0132 58.3177 45.0156Z" fill="#A63F0E"/>
  <path opacity="0.4" d="M58.3177 45.0156H46.7494C46.5674 45.0194 46.3867 44.9841 46.2195 44.9122C46.0523 44.8403 45.9024 44.7335 45.7799 44.5989C45.6574 44.4643 45.5651 44.305 45.5093 44.1317C45.4534 43.9585 45.4353 43.7753 45.4561 43.5945L46.5611 30.9709C46.5993 30.5863 46.7775 30.229 47.0618 29.967C47.346 29.7051 47.7166 29.5566 48.1031 29.5498H59.6892C59.871 29.5466 60.0514 29.5823 60.2183 29.6543C60.3853 29.7264 60.5349 29.8333 60.6573 29.9678C60.7797 30.1023 60.872 30.2613 60.9281 30.4343C60.9841 30.6073 61.0027 30.7902 60.9824 30.9709L59.8775 43.5945C59.8389 43.9822 59.6582 44.3418 59.3702 44.6042C59.0822 44.8666 58.7073 45.0132 58.3177 45.0156Z" fill="white"/>
  <path opacity="0.8" d="M59.899 30.9779C59.904 30.933 59.8995 30.8875 59.8856 30.8446C59.8718 30.8016 59.8491 30.762 59.8189 30.7284C59.7887 30.6948 59.7517 30.6681 59.7104 30.6498C59.6691 30.6316 59.6244 30.6223 59.5792 30.6226H48.0073C47.9114 30.6248 47.8196 30.6622 47.7495 30.7277C47.6794 30.7933 47.6359 30.8823 47.6272 30.9779L46.5222 43.6014C46.5166 43.6464 46.5207 43.6921 46.5343 43.7353C46.5479 43.7786 46.5706 43.8184 46.6009 43.8521C46.6313 43.8858 46.6685 43.9126 46.7101 43.9306C46.7517 43.9487 46.7966 43.9576 46.842 43.9567H58.4139C58.5098 43.9545 58.6016 43.917 58.6717 43.8515C58.7418 43.786 58.7853 43.697 58.794 43.6014L59.899 30.9779Z" fill="white"/>
  <path d="M55.4826 36.7516C55.3547 38.1976 54.4736 39.3701 53.0275 39.3701C51.5815 39.3701 50.8958 38.1976 51.0344 36.7516C51.1729 35.3055 52.0398 34.1331 53.4859 34.1331C54.9319 34.1331 55.607 35.3055 55.4826 36.7516Z" fill="#A63F0E"/>
  <path d="M58.1047 41.8215C57.9276 41.1879 57.545 40.6312 57.0169 40.2389C56.4889 39.8466 55.8455 39.6409 55.1878 39.6542H50.807C50.1091 39.6663 49.429 39.8765 48.846 40.2602C48.2629 40.6439 47.8008 41.1853 47.5135 41.8215L46.5933 43.8466C46.6234 43.8797 46.6602 43.9059 46.7012 43.9237C46.7423 43.9414 46.7866 43.9503 46.8313 43.9497H58.4032C58.4983 43.9482 58.5894 43.9115 58.659 43.8466L58.1047 41.8215Z" fill="#A63F0E"/>
  <path d="M81.213 111.583H39.1926C39.0107 111.586 38.8304 111.551 38.6634 111.479C38.4965 111.407 38.3468 111.3 38.2244 111.165C38.102 111.031 38.0097 110.872 37.9537 110.699C37.8976 110.526 37.8791 110.343 37.8993 110.162L40.4396 81.1382C40.4771 80.7538 40.6545 80.3966 40.9382 80.1346C41.2218 79.8725 41.5919 79.7239 41.9781 79.717H83.9985C84.1804 79.7138 84.3608 79.7495 84.5277 79.8216C84.6946 79.8937 84.8443 80.0005 84.9667 80.135C85.0891 80.2695 85.1814 80.4285 85.2374 80.6015C85.2935 80.7745 85.312 80.9574 85.2918 81.1382L82.7515 110.162C82.7133 110.546 82.5356 110.903 82.2521 111.165C81.9686 111.427 81.5989 111.576 81.213 111.583Z" fill="#A63F0E"/>
  <path opacity="0.4" d="M81.213 111.583H39.1926C39.0107 111.586 38.8304 111.551 38.6634 111.479C38.4965 111.407 38.3468 111.3 38.2244 111.165C38.102 111.031 38.0097 110.872 37.9537 110.699C37.8976 110.526 37.8791 110.343 37.8993 110.162L40.4396 81.1382C40.4771 80.7538 40.6545 80.3966 40.9382 80.1346C41.2218 79.8725 41.5919 79.7239 41.9781 79.717H83.9985C84.1804 79.7138 84.3608 79.7495 84.5277 79.8216C84.6946 79.8937 84.8443 80.0005 84.9667 80.135C85.0891 80.2695 85.1814 80.4285 85.2374 80.6015C85.2935 80.7745 85.312 80.9574 85.2918 81.1382L82.7515 110.162C82.7133 110.546 82.5356 110.903 82.2521 111.165C81.9686 111.427 81.5989 111.576 81.213 111.583Z" fill="white"/>
  <path d="M83.9063 80.7901H41.8858C41.7894 80.7907 41.6968 80.8276 41.6263 80.8935C41.5559 80.9593 41.5128 81.0492 41.5057 81.1454L38.9653 110.169C38.9597 110.214 38.9638 110.26 38.9774 110.303C38.991 110.346 39.0137 110.386 39.0441 110.42C39.0744 110.454 39.1116 110.48 39.1532 110.498C39.1948 110.517 39.2398 110.525 39.2851 110.525H81.3056C81.4013 110.522 81.4926 110.484 81.5626 110.418C81.6325 110.353 81.6763 110.265 81.6857 110.169L84.2261 81.1454C84.2317 81.1004 84.2276 81.0547 84.214 81.0115C84.2004 80.9682 84.1777 80.9284 84.1473 80.8947C84.117 80.861 84.0798 80.8342 84.0382 80.8162C83.9966 80.7981 83.9516 80.7892 83.9063 80.7901Z" fill="#263238"/>
  <path d="M65.235 99.4534C67.527 97.2593 67.7549 93.7777 65.7439 91.6771C63.733 89.5764 60.2448 89.6522 57.9528 91.8463C55.6608 94.0404 55.4329 97.522 57.4439 99.6227C59.4548 101.723 62.943 101.648 65.235 99.4534Z" fill="#A63F0E"/>
  <path opacity="0.9" d="M64.4716 95.6519L59.8918 98.4587L60.3857 92.8486L64.4716 95.6519Z" fill="white"/>
  <path opacity="0.8" d="M76.6154 106.222H41.3953L41.4201 105.927H76.6403L76.6154 106.222Z" fill="white"/>
  <path d="M54.9141 106.073C54.9044 106.181 54.8547 106.283 54.7746 106.357C54.6945 106.431 54.5897 106.473 54.4806 106.474H41.0612C41.0104 106.475 40.9601 106.464 40.9136 106.444C40.8672 106.423 40.8258 106.392 40.7921 106.354C40.7584 106.316 40.7333 106.272 40.7184 106.223C40.7036 106.174 40.6993 106.123 40.7059 106.073C40.7164 105.965 40.7665 105.864 40.8465 105.791C40.9265 105.717 41.0308 105.676 41.1394 105.675H54.5588C54.6092 105.674 54.6592 105.685 54.7053 105.705C54.7515 105.726 54.7927 105.756 54.8264 105.793C54.86 105.831 54.8852 105.875 54.9003 105.924C54.9154 105.972 54.9201 106.023 54.9141 106.073Z" fill="#A63F0E"/>
  <g opacity="0.8">
    <path d="M79.9087 105.202H80.3599L80.3279 105.593H80.7081L80.7649 104.964H79.93L79.9087 105.202Z" fill="white"/>
    <path d="M77.539 105.593L77.5745 105.202H78.0257L78.0471 104.964H77.2121L77.1553 105.593H77.539Z" fill="white"/>
    <path d="M77.8767 106.947H77.4219L77.4574 106.556H77.0737L77.0168 107.185H77.8553L77.8767 106.947Z" fill="white"/>
    <path d="M80.2427 106.556L80.2072 106.947H79.7559L79.7346 107.185H80.5696L80.6264 106.556H80.2427Z" fill="white"/>
  </g>
  <g opacity="0.8">
    <path opacity="0.9" d="M59.5686 109.231L60.9329 108.396L59.7143 107.558L59.5686 109.231Z" fill="white"/>
    <path opacity="0.9" d="M61.0006 107.647L60.9331 108.396L60.8691 109.143H61.2173L61.3488 107.647H61.0006Z" fill="white"/>
  </g>
  <g opacity="0.8">
    <path opacity="0.9" d="M62.5564 109.143H63.0112L63.1426 107.647H62.6879L62.5564 109.143Z" fill="white"/>
    <path opacity="0.9" d="M63.4911 107.647L63.3596 109.143H63.8108L63.9423 107.647H63.4911Z" fill="white"/>
  </g>
  <path opacity="0.8" d="M58.3746 108.396L57.0103 109.231L57.1559 107.558L58.3746 108.396Z" fill="white"/>
  <path d="M83.9559 77.1908H41.9247C41.7429 77.1939 41.5625 77.1583 41.3956 77.0862C41.2286 77.0141 41.079 76.9073 40.9566 76.7728C40.8342 76.6383 40.7419 76.4793 40.6858 76.3063C40.6298 76.1333 40.6112 75.9503 40.6315 75.7696L42.0917 59.0709C42.1307 58.6865 42.3091 58.3297 42.5932 58.0678C42.8773 57.806 43.2474 57.6573 43.6337 57.6497H85.6648C85.8468 57.646 86.0275 57.6812 86.1947 57.7531C86.3619 57.825 86.5118 57.9318 86.6343 58.0665C86.7569 58.2011 86.8491 58.3604 86.905 58.5336C86.9608 58.7068 86.9789 58.89 86.9581 59.0709L85.4978 75.7696C85.4589 76.154 85.2805 76.5108 84.9964 76.7726C84.7123 77.0345 84.3422 77.1832 83.9559 77.1908Z" fill="#A63F0E"/>
  <path opacity="0.4" d="M83.9559 77.1908H41.9247C41.7429 77.1939 41.5625 77.1583 41.3956 77.0862C41.2286 77.0141 41.079 76.9073 40.9566 76.7728C40.8342 76.6383 40.7419 76.4793 40.6858 76.3063C40.6298 76.1333 40.6112 75.9503 40.6315 75.7696L42.0917 59.0709C42.1307 58.6865 42.3091 58.3297 42.5932 58.0678C42.8773 57.806 43.2474 57.6573 43.6337 57.6497H85.6648C85.8468 57.646 86.0275 57.6812 86.1947 57.7531C86.3619 57.825 86.5118 57.9318 86.6343 58.0665C86.7569 58.2011 86.8491 58.3604 86.905 58.5336C86.9608 58.7068 86.9789 58.89 86.9581 59.0709L85.4978 75.7696C85.4589 76.154 85.2805 76.5108 84.9964 76.7726C84.7123 77.0345 84.3422 77.1832 83.9559 77.1908Z" fill="white"/>
  <path opacity="0.3" d="M85.5867 58.5523H43.5663C43.4225 58.5542 43.2845 58.6088 43.1784 58.7057C43.0723 58.8027 43.0055 58.9352 42.9907 59.0782L41.5304 75.7769C41.5234 75.8443 41.5307 75.9123 41.5519 75.9767C41.573 76.041 41.6076 76.1001 41.6532 76.1501C41.6989 76.2001 41.7546 76.2399 41.8167 76.2668C41.8788 76.2937 41.9459 76.3072 42.0136 76.3063H84.0341C84.1779 76.3028 84.3156 76.2473 84.4214 76.1499C84.5273 76.0525 84.5942 75.92 84.6097 75.7769L86.0699 59.0782C86.077 59.011 86.0697 58.9431 86.0485 58.879C86.0273 58.8148 85.9927 58.7559 85.947 58.7062C85.9013 58.6565 85.8455 58.617 85.7834 58.5905C85.7213 58.564 85.6543 58.551 85.5867 58.5523Z" fill="white"/>
  <path opacity="0.4" d="M52.15 67.4277H72.4017L71.4068 62.546L70.0745 58.5525H49.6416L52.15 67.4277Z" fill="white"/>
  <path opacity="0.4" d="M52.15 67.4275L42.2303 67.7828L41.5197 75.7733C41.5127 75.8407 41.52 75.9087 41.5411 75.973C41.5623 76.0373 41.5968 76.0964 41.6425 76.1465C41.6881 76.1965 41.7438 76.2362 41.8059 76.2632C41.8681 76.2901 41.9352 76.3036 42.0029 76.3027H54.6655L52.15 67.4275Z" fill="white"/>
  <path d="M84.837 73.1479L85.004 71.2471L73.4072 66.6425L72.2845 63.388L75.841 58.5525H74.1462L71.8262 61.7075L71.0232 58.5525H69.5061L70.6892 63.253L71.8262 66.5395H52.6403L50.5406 58.5525H49.0341L51.1339 66.5395H42.3404L42.1841 68.3159H51.6029L53.7027 76.3029H55.2056L53.1058 68.3159H63.6473L69.1721 76.3029H70.9735L65.4487 68.3159H72.6611L84.837 73.1479Z" fill="white"/>
  <path opacity="0.2" d="M64.6511 65.766C65.8775 65.7607 66.8707 65.5384 66.8695 65.2696C66.8683 65.0008 65.8732 64.7872 64.6468 64.7926C63.4204 64.7979 62.4272 65.0202 62.4284 65.289C62.4296 65.5578 63.4247 65.7714 64.6511 65.766Z" fill="black"/>
  <path d="M65.1503 59.6182C64.5467 59.632 63.9687 59.8649 63.5241 60.2735C63.0796 60.6821 62.7989 61.2384 62.7343 61.8388C62.6277 63.0645 64.6387 65.4805 64.6387 65.4805C64.6387 65.4805 67.0689 63.0645 67.1755 61.8388C67.2063 61.5562 67.1766 61.2703 67.0884 61.0001C67.0002 60.7299 66.8555 60.4815 66.664 60.2715C66.4725 60.0615 66.2384 59.8946 65.9774 59.782C65.7165 59.6693 65.4345 59.6135 65.1503 59.6182ZM64.8661 62.8514C64.7364 62.8536 64.6078 62.8283 64.4887 62.777C64.3696 62.7257 64.2628 62.6496 64.1754 62.5538C64.088 62.458 64.022 62.3447 63.9818 62.2214C63.9416 62.0981 63.9282 61.9677 63.9423 61.8388C63.9708 61.5647 64.0986 61.3105 64.3014 61.1241C64.5042 60.9376 64.7682 60.8316 65.0437 60.8262C65.1734 60.8239 65.302 60.8493 65.4211 60.9006C65.5402 60.9519 65.647 61.028 65.7344 61.1238C65.8218 61.2196 65.8878 61.3329 65.928 61.4562C65.9682 61.5794 65.9816 61.7099 65.9675 61.8388C65.9404 62.1134 65.8132 62.3685 65.61 62.5553C65.4069 62.742 65.142 62.8474 64.8661 62.8514Z" fill="#A63F0E"/>
  <path d="M119.186 115.822L118.629 122.203H115.736L115.438 115.822H119.186Z" fill="#B97964"/>
  <path d="M114.436 122.047C114.119 122.076 113.803 121.988 113.548 121.798C113.516 121.752 113.499 121.698 113.499 121.642C113.499 121.586 113.516 121.531 113.548 121.485C113.573 121.444 113.606 121.408 113.645 121.38C113.684 121.352 113.728 121.332 113.775 121.322C114.283 121.19 115.331 121.816 115.378 121.841C115.39 121.849 115.4 121.861 115.406 121.875C115.413 121.888 115.415 121.904 115.413 121.919C115.409 121.933 115.401 121.945 115.391 121.955C115.38 121.965 115.367 121.972 115.353 121.976C115.05 122.025 114.743 122.049 114.436 122.047ZM113.964 121.446C113.918 121.445 113.872 121.451 113.829 121.464C113.799 121.468 113.77 121.478 113.745 121.495C113.719 121.512 113.698 121.534 113.683 121.56C113.63 121.649 113.647 121.691 113.683 121.716C113.818 121.919 114.585 121.937 115.15 121.876C114.786 121.657 114.383 121.511 113.964 121.446Z" fill="#A63F0E"/>
  <path d="M115.356 121.975H115.325C114.969 121.808 114.259 121.137 114.319 120.796C114.319 120.714 114.39 120.615 114.589 120.6C114.661 120.593 114.733 120.601 114.801 120.623C114.87 120.645 114.933 120.681 114.987 120.728C115.367 121.052 115.435 121.872 115.438 121.911C115.439 121.924 115.437 121.937 115.431 121.948C115.426 121.959 115.417 121.969 115.406 121.975C115.39 121.981 115.373 121.981 115.356 121.975ZM114.646 120.732H114.603C114.475 120.732 114.465 120.792 114.461 120.81C114.44 121.016 114.909 121.538 115.278 121.769C115.25 121.424 115.114 121.096 114.891 120.831C114.825 120.769 114.737 120.735 114.646 120.735V120.732Z" fill="#A63F0E"/>
  <path d="M115.683 121.556L118.995 121.613C119.055 121.614 119.114 121.635 119.161 121.674C119.207 121.713 119.239 121.767 119.25 121.826L119.805 124.53C119.816 124.588 119.816 124.648 119.804 124.705C119.792 124.763 119.769 124.818 119.736 124.867C119.703 124.916 119.661 124.958 119.612 124.99C119.562 125.023 119.507 125.045 119.449 125.056C119.417 125.06 119.385 125.06 119.353 125.056C118.163 125.017 117.101 124.932 115.616 124.91C113.861 124.882 114.305 125.099 112.24 125.092C110.997 125.092 110.794 123.67 111.324 123.61C113.74 123.347 114.003 122.626 114.948 121.777C115.157 121.614 115.419 121.536 115.683 121.556Z" fill="#263238"/>
  <path d="M110.496 60.1793L115.232 118.192H119.176C119.176 118.192 121.475 102.111 119.886 91.9993C119.721 90.9269 119.7 89.8372 119.823 88.7591C120.313 84.4032 121.514 73.2328 121.354 69.456C121.354 69.456 123.361 64.9154 121.766 58.6018H110.496V60.1793Z" fill="#263238"/>
  <path d="M119.748 117.105L119.584 118.192L119.943 119.08H114.944L115.076 118.192L114.649 117.105H119.748Z" fill="#263238"/>
  <path opacity="0.3" d="M119.748 117.105L119.584 118.192L119.943 119.08H114.944L115.076 118.192L114.649 117.105H119.748Z" fill="white"/>
  <path opacity="0.5" d="M119.645 65.6226L121.719 68.4045C121.624 68.767 121.505 69.123 121.364 69.4704C121.464 71.8331 121.119 76.1072 120.753 79.8023C116.728 70.3657 117.875 66.7027 117.875 66.7027L119.645 65.6226Z" fill="black"/>
  <path d="M98.9454 37.6256L97.5455 35.2594L98.416 33.7529C98.4716 33.655 98.5052 33.546 98.5144 33.4337C98.5236 33.3214 98.5082 33.2085 98.4693 33.1027L98.4018 32.9322C98.3483 32.7928 98.2545 32.6724 98.1324 32.5863C98.0103 32.5003 97.8654 32.4525 97.716 32.449L96.3446 32.4099C96.2056 32.4063 96.0683 32.4412 95.9479 32.5108C95.8274 32.5804 95.7287 32.682 95.6625 32.8043L95.3818 33.3124C95.3148 33.4348 95.2777 33.5714 95.2734 33.7109C95.2691 33.8504 95.2977 33.989 95.3569 34.1153L95.9467 35.3908L97.041 38.3256L98.9454 37.6256Z" fill="#B97964"/>
  <path d="M110.084 37.2097L102.094 43.0258L98.3381 36.0017L96.2063 36.9255C96.2063 36.9255 99.4928 47.5842 101.404 47.1401C103.316 46.696 108.72 44.0562 110.464 42.2122C111.349 41.292 112.02 39.5973 111.146 37.501C111.104 37.4046 111.04 37.3188 110.96 37.25C110.88 37.1812 110.786 37.131 110.684 37.1031C110.583 37.0752 110.476 37.0703 110.372 37.0887C110.268 37.1072 110.17 37.1485 110.084 37.2097Z" fill="#A63F0E"/>
  <path d="M113.072 23.364C113.072 23.364 110.247 24.103 111.555 27.5067C111.555 27.5067 112.958 27.1514 113.189 26.2277C113.42 25.3039 113.633 24.0426 113.633 24.0426L113.072 23.364Z" fill="#263238"/>
  <path opacity="0.3" d="M113.072 23.364C113.072 23.364 110.247 24.103 111.555 27.5067C111.555 27.5067 112.958 27.1514 113.189 26.2277C113.42 25.3039 113.633 24.0426 113.633 24.0426L113.072 23.364Z" fill="black"/>
  <path d="M119.737 36.8726L114.582 36.7056L112.45 37.0111L112.162 40.898L116.316 42.2801L120.746 41.3954L120.977 37.6506L120.661 36.9045L119.737 36.8726Z" fill="#B97964"/>
  <path d="M133.391 115.659L135.299 122.203H137.782L137.281 115.463L133.391 115.659Z" fill="#B97964"/>
  <path d="M133.59 122.047C133.214 122.047 132.83 121.965 132.716 121.798C132.688 121.749 132.676 121.693 132.681 121.637C132.686 121.581 132.708 121.528 132.745 121.485C132.8 121.404 132.883 121.345 132.979 121.322C133.498 121.19 134.51 121.816 134.557 121.841C134.569 121.849 134.578 121.861 134.583 121.875C134.589 121.889 134.589 121.904 134.585 121.919C134.581 121.933 134.573 121.945 134.563 121.955C134.552 121.965 134.539 121.972 134.525 121.976C134.216 122.026 133.903 122.05 133.59 122.047ZM133.15 121.446C133.103 121.445 133.056 121.451 133.011 121.464C132.981 121.468 132.952 121.479 132.926 121.495C132.9 121.512 132.878 121.534 132.862 121.56C132.805 121.649 132.819 121.691 132.837 121.716C132.965 121.919 133.729 121.937 134.297 121.876C133.945 121.657 133.552 121.511 133.143 121.446H133.15Z" fill="#A63F0E"/>
  <path d="M134.506 121.975H134.475C134.119 121.808 133.441 121.137 133.529 120.796C133.529 120.714 133.611 120.615 133.81 120.601C133.881 120.593 133.952 120.6 134.019 120.623C134.087 120.645 134.149 120.681 134.201 120.728C134.556 121.052 134.592 121.872 134.592 121.912C134.591 121.924 134.588 121.937 134.582 121.948C134.576 121.959 134.567 121.969 134.556 121.975C134.54 121.981 134.523 121.981 134.506 121.975ZM133.849 120.732H133.81C133.679 120.732 133.668 120.792 133.661 120.81C133.629 121.016 134.069 121.538 134.428 121.769C134.419 121.429 134.301 121.1 134.091 120.831C134.025 120.77 133.939 120.736 133.849 120.736V120.732Z" fill="#A63F0E"/>
  <path d="M134.855 121.557L138.163 121.613C138.223 121.613 138.281 121.635 138.327 121.674C138.372 121.713 138.402 121.767 138.412 121.827L138.82 124.53C138.837 124.646 138.81 124.765 138.744 124.862C138.678 124.959 138.579 125.028 138.465 125.056C138.434 125.06 138.403 125.06 138.373 125.056C137.179 125.017 136.124 124.932 134.638 124.91C132.887 124.882 133.317 125.099 131.256 125.092C130.012 125.092 129.885 123.67 130.414 123.61C132.844 123.347 133.146 122.626 134.134 121.777C134.342 121.623 134.597 121.545 134.855 121.557Z" fill="#263238"/>
  <path d="M114.973 58.6018L133.75 118.192H137.712C137.712 118.192 135.818 99.0341 132.382 91.5446C131.959 90.6186 131.69 89.6297 131.586 88.6169C131.231 84.9397 130.279 76.2421 129.209 71.4527C129.075 70.8487 128.993 70.2341 128.964 69.6159C128.872 67.5623 128.36 62.439 125.689 58.6018H114.973Z" fill="#263238"/>
  <path d="M138.411 117.105L138.191 118.192L138.504 119.08H133.505L133.288 118.192L132.918 117.105H138.411Z" fill="#263238"/>
  <path opacity="0.3" d="M138.411 117.105L138.191 118.192L138.504 119.08H133.505L133.288 118.192L132.918 117.105H138.411Z" fill="white"/>
  <path d="M120.384 37.5154C120.384 37.5154 118.732 40.0379 116.006 39.9136C113.427 39.7963 112.983 37.2205 112.983 37.2205L112.656 41.1571L112.333 50.6896L112.745 54.7328L112.716 59.1882C115.142 59.3866 117.582 59.3474 120 59.071C120 59.071 120.473 42.7275 120.384 42.8163C120.295 42.9051 121.155 39.974 121.155 39.974V38.7873L120.384 37.5154Z" fill="#A63F0E"/>
  <path opacity="0.6" d="M120.384 37.5154C120.384 37.5154 118.732 40.0379 116.006 39.9136C113.427 39.7963 112.983 37.2205 112.983 37.2205L112.656 41.1571L112.333 50.6896L112.745 54.7328L112.716 59.1882C115.142 59.3866 117.582 59.3474 120 59.071C120 59.071 120.473 42.7275 120.384 42.8163C120.295 42.9051 121.155 39.974 121.155 39.974V38.7873L120.384 37.5154Z" fill="white"/>
  <path d="M117.758 36.5702C117.758 36.5702 126.285 36.0443 126.64 38.6167C126.996 41.189 124.509 46.458 124.921 50.0677C125.333 53.6775 127.351 59.0957 127.351 59.0957C127.351 59.0957 120.895 63.3912 118.646 61.97C116.397 60.5489 116.994 44.2658 116.994 44.2658C116.994 44.2658 121.784 37.4548 119.09 37.0995C116.397 36.7443 113.317 36.46 113.551 38.6167C113.816 40.4599 114.185 42.2867 114.656 44.0882C114.656 44.0882 114.457 62.1512 112.546 61.9132C110.634 61.6751 109.668 59.6038 109.668 59.6038C110.077 57.4092 110.077 55.1579 109.668 52.9634C108.993 49.2399 107.757 46.3123 108.428 43.3705C109.1 40.4286 109.668 36.6696 111.089 36.6199C112.301 36.5346 117.758 36.5702 117.758 36.5702Z" fill="#A63F0E"/>
  <path opacity="0.2" d="M117.758 36.5702C117.758 36.5702 126.285 36.0443 126.64 38.6167C126.996 41.189 124.509 46.458 124.921 50.0677C125.333 53.6775 127.351 59.0957 127.351 59.0957C127.351 59.0957 120.895 63.3912 118.646 61.97C116.397 60.5489 116.994 44.2658 116.994 44.2658C116.994 44.2658 121.784 37.4548 119.09 37.0995C116.397 36.7443 113.317 36.46 113.551 38.6167C113.816 40.4599 114.185 42.2867 114.656 44.0882C114.656 44.0882 114.457 62.1512 112.546 61.9132C110.634 61.6751 109.668 59.6038 109.668 59.6038C110.077 57.4092 110.077 55.1579 109.668 52.9634C108.993 49.2399 107.757 46.3123 108.428 43.3705C109.1 40.4286 109.668 36.6696 111.089 36.6199C112.301 36.5346 117.758 36.5702 117.758 36.5702Z" fill="black"/>
  <path d="M114.155 36.5561C115.932 36.5561 117.758 36.5561 117.758 36.5561C117.758 36.5561 118.849 36.4886 120.263 36.5206C120.824 36.9078 121.57 37.7996 120.974 39.6933L119.734 40.1801L119.957 41.3952C119.957 41.3952 118.536 43.6477 116.969 44.5004C116.969 44.3512 116.969 44.2659 116.969 44.2659C116.969 44.2659 121.759 37.455 119.066 37.0997C116.373 36.7444 113.292 36.4602 113.527 38.6168C113.791 40.4601 114.16 42.2869 114.632 44.0883V44.1878C113.871 43.5127 113.21 42.3118 112.756 40.8907L113.26 39.4908L112.145 38.8762C112.238 38.3437 112.475 37.8467 112.829 37.4381C113.183 37.0295 113.642 36.7247 114.155 36.5561Z" fill="#A63F0E"/>
  <path opacity="0.2" d="M114.155 36.5561C115.932 36.5561 117.758 36.5561 117.758 36.5561C117.758 36.5561 118.849 36.4886 120.263 36.5206C120.824 36.9078 121.57 37.7996 120.974 39.6933L119.734 40.1801L119.957 41.3952C119.957 41.3952 118.536 43.6477 116.969 44.5004C116.969 44.3512 116.969 44.2659 116.969 44.2659C116.969 44.2659 121.759 37.455 119.066 37.0997C116.373 36.7444 113.292 36.4602 113.527 38.6168C113.791 40.4601 114.16 42.2869 114.632 44.0883V44.1878C113.871 43.5127 113.21 42.3118 112.756 40.8907L113.26 39.4908L112.145 38.8762C112.238 38.3437 112.475 37.8467 112.829 37.4381C113.183 37.0295 113.642 36.7247 114.155 36.5561Z" fill="white"/>
  <path d="M114.646 39.4374C113.509 38.24 114.209 37.3767 114.209 37.3767C116.234 36.6874 116.049 35.1667 115.584 33.7562L118.849 30.4236C118.653 32.2 118.582 36.2788 119.744 37.7V38.0162C118.693 38.427 117.668 38.9016 116.674 39.4374H114.646Z" fill="#B97964"/>
  <path opacity="0.1" d="M115.584 33.7529L118.177 31.106L118.778 31.3227C118.757 31.6424 118.746 31.9906 118.739 32.3566C118.412 33.0281 117.623 33.9732 115.779 34.4493C115.726 34.2112 115.658 33.9767 115.584 33.7529Z" fill="black"/>
  <path d="M120.512 27.4747C119.719 30.4947 119.446 31.788 117.602 33.0528C114.816 34.9536 111.285 33.3264 111.153 30.1323C111.036 27.258 112.343 22.8062 115.573 22.1809C116.284 22.0411 117.019 22.0849 117.708 22.308C118.397 22.5311 119.019 22.9262 119.513 23.456C120.007 23.9858 120.358 24.6328 120.533 25.336C120.708 26.0391 120.7 26.7752 120.512 27.4747Z" fill="#B97964"/>
  <path d="M113.338 28.2532C113.006 28.7792 112.603 29.2574 112.141 29.6743C112.247 29.7933 112.378 29.8869 112.525 29.9484C112.672 30.0099 112.831 30.0376 112.99 30.0296L113.338 28.2532Z" fill="#A24E3F"/>
  <path d="M116.557 27.1409C116.578 27.14 116.599 27.1336 116.617 27.1225C116.635 27.1114 116.65 27.0958 116.66 27.0773C116.671 27.0588 116.676 27.0379 116.676 27.0167C116.676 26.9955 116.671 26.9747 116.66 26.9562C116.543 26.7575 116.381 26.5894 116.186 26.4658C115.992 26.3423 115.771 26.2668 115.541 26.2456C115.508 26.2456 115.477 26.2581 115.453 26.2805C115.429 26.303 115.415 26.3337 115.413 26.3664C115.412 26.3988 115.424 26.4303 115.446 26.4542C115.468 26.4781 115.498 26.4925 115.53 26.4943C115.721 26.515 115.904 26.5809 116.064 26.6866C116.224 26.7923 116.357 26.9346 116.451 27.1019C116.464 27.1164 116.481 27.1275 116.499 27.1343C116.518 27.1411 116.538 27.1434 116.557 27.1409Z" fill="#263238"/>
  <path d="M111.562 26.2278C111.582 26.2329 111.603 26.2329 111.622 26.2278C111.786 26.1302 111.971 26.0729 112.161 26.0605C112.351 26.0482 112.542 26.0812 112.717 26.1568C112.745 26.172 112.779 26.1753 112.81 26.166C112.842 26.1567 112.868 26.1355 112.884 26.107C112.897 26.0772 112.899 26.0433 112.889 26.0122C112.878 25.9811 112.856 25.9553 112.827 25.94C112.615 25.8457 112.383 25.8033 112.152 25.8162C111.92 25.8292 111.695 25.8972 111.494 26.0146C111.465 26.0298 111.443 26.0559 111.433 26.0872C111.423 26.1184 111.426 26.1524 111.441 26.1816C111.452 26.203 111.469 26.2207 111.49 26.2327C111.511 26.2447 111.534 26.2504 111.558 26.2491L111.562 26.2278Z" fill="#263238"/>
  <path d="M114.255 30.8392C114.11 30.8397 113.965 30.8279 113.822 30.8037C113.802 30.7994 113.785 30.7878 113.774 30.7713C113.763 30.7548 113.758 30.7346 113.761 30.7149C113.763 30.705 113.766 30.6955 113.771 30.687C113.776 30.6784 113.783 30.6709 113.79 30.665C113.798 30.659 113.807 30.6547 113.817 30.6523C113.827 30.6499 113.837 30.6494 113.847 30.6509C114.161 30.7109 114.485 30.6972 114.793 30.6109C115.101 30.5246 115.385 30.368 115.623 30.1535C115.638 30.1426 115.655 30.1372 115.673 30.138C115.692 30.1389 115.709 30.146 115.722 30.1582C115.736 30.1704 115.744 30.1868 115.747 30.2048C115.75 30.2227 115.746 30.241 115.737 30.2565C115.337 30.6348 114.806 30.8436 114.255 30.8392Z" fill="#263238"/>
  <path d="M119.495 29.8447C119.13 29.4302 118.859 28.9414 118.701 28.4121C118.543 27.8828 118.501 27.3254 118.579 26.7785C118.579 26.7785 117.364 25.535 117.424 24.2026C117.424 24.2026 117.069 25.2685 117.424 26.0217C117.424 26.0217 114.273 25.7908 114.347 24.2026C114.347 24.2026 114.141 25.002 114.614 25.4177C114.614 25.4177 111.814 25.535 112.191 24.0854C112.567 22.6358 114.766 21.9216 114.766 21.9216C114.766 21.9216 116.856 20.1452 119.741 23.286C119.741 23.286 123.144 25.4177 120.732 28.9706L119.495 29.8447Z" fill="#263238"/>
  <path d="M120.757 30.0329C120.618 30.2975 120.428 30.532 120.198 30.7229C119.969 30.9137 119.703 31.0572 119.418 31.1449C118.654 31.3759 118.256 30.6973 118.455 29.9654C118.632 29.3081 119.247 28.395 120.025 28.4838C120.194 28.5071 120.354 28.572 120.491 28.6726C120.628 28.7733 120.738 28.9065 120.81 29.0603C120.883 29.2141 120.916 29.3835 120.907 29.5533C120.897 29.7231 120.846 29.888 120.757 30.0329Z" fill="#B97964"/>
  <path d="M115.605 27.823C115.58 28.0824 115.42 28.2778 115.25 28.2636C115.079 28.2494 114.965 28.022 114.994 27.7591C115.022 27.4962 115.182 27.3007 115.349 27.3185C115.516 27.3363 115.633 27.5601 115.605 27.823Z" fill="#2E353A"/>
  <path d="M112.656 27.5137C112.632 27.7731 112.472 27.9685 112.301 27.9543C112.131 27.94 112.013 27.7127 112.042 27.4497C112.07 27.1868 112.23 26.9914 112.397 27.0092C112.564 27.0269 112.688 27.2508 112.656 27.5137Z" fill="#2E353A"/>
  <path d="M112.471 27.0306L111.864 26.7854C111.864 26.7854 112.134 27.3077 112.471 27.0306Z" fill="#2E353A"/>
  <path d="M115.42 27.3577L114.813 27.1125C114.813 27.1125 115.086 27.6171 115.42 27.3577Z" fill="#2E353A"/>
  <path d="M119.232 32.5591C119.428 32.5589 119.62 32.5018 119.784 32.3946C119.948 32.2875 120.077 32.135 120.155 31.9557C120.234 31.7764 120.259 31.5781 120.227 31.385C120.195 31.1918 120.107 31.0122 119.975 30.8679L119.844 30.9851C119.973 31.1252 120.051 31.3057 120.063 31.4962C120.076 31.6867 120.022 31.8757 119.911 32.0314C119.801 32.1871 119.64 32.2999 119.456 32.3511C119.272 32.4022 119.076 32.3884 118.901 32.3121C118.726 32.2358 118.583 32.1016 118.495 31.932C118.407 31.7624 118.381 31.5678 118.42 31.3809C118.458 31.1939 118.56 31.0261 118.709 30.9055C118.857 30.7849 119.042 30.7189 119.232 30.7187C119.355 30.7145 119.476 30.7388 119.588 30.7897L119.662 30.6263C119.532 30.5698 119.392 30.5408 119.25 30.541C118.983 30.541 118.726 30.6473 118.537 30.8366C118.348 31.0258 118.241 31.2824 118.241 31.55C118.241 31.8177 118.348 32.0743 118.537 32.2635C118.726 32.4528 118.983 32.5591 119.25 32.5591H119.232Z" fill="#A63F0E"/>
  <g opacity="0.6">
    <path d="M119.232 32.5591C119.428 32.5589 119.62 32.5018 119.784 32.3946C119.948 32.2875 120.077 32.135 120.155 31.9557C120.234 31.7764 120.259 31.5781 120.227 31.385C120.195 31.1918 120.107 31.0122 119.975 30.8679L119.844 30.9851C119.973 31.1252 120.051 31.3057 120.063 31.4962C120.076 31.6867 120.022 31.8757 119.911 32.0314C119.801 32.1871 119.64 32.2999 119.456 32.3511C119.272 32.4022 119.076 32.3884 118.901 32.3121C118.726 32.2358 118.583 32.1016 118.495 31.932C118.407 31.7624 118.381 31.5678 118.42 31.3809C118.458 31.1939 118.56 31.0261 118.709 30.9055C118.857 30.7849 119.042 30.7189 119.232 30.7187C119.355 30.7145 119.476 30.7388 119.588 30.7897L119.662 30.6263C119.532 30.5698 119.392 30.5408 119.25 30.541C118.983 30.541 118.726 30.6473 118.537 30.8366C118.348 31.0258 118.241 31.2824 118.241 31.55C118.241 31.8177 118.348 32.0743 118.537 32.2635C118.726 32.4528 118.983 32.5591 119.25 32.5591H119.232Z" fill="white"/>
  </g>
  <path d="M108.364 54.7329L105.479 56.3282L102.427 55.9516C102.315 55.9361 102.201 55.9627 102.107 56.0262L100.96 56.7901C100.899 56.8289 100.848 56.8812 100.811 56.9428L100.48 57.5077C100.441 57.5759 100.419 57.6528 100.417 57.7315C100.414 57.8102 100.432 57.8882 100.467 57.9586C100.502 58.029 100.554 58.0896 100.618 58.1349C100.683 58.1802 100.757 58.2089 100.836 58.2183C101.7 58.4062 102.576 58.5344 103.458 58.602C104.228 58.4928 104.99 58.3301 105.739 58.1153L109.785 56.6657L108.364 54.7329Z" fill="#B97964"/>
  <path d="M125.596 37.9061C123.94 36.8402 121.979 39.3272 120.37 42.7878L117.343 49.3145L105.995 55.8448L106.773 57.9268C106.773 57.9268 117.691 54.8642 120.356 51.5777C123.02 48.2913 127.863 39.3805 125.596 37.9061Z" fill="#A63F0E"/>
  <path d="M78.2675 57.0532H101.969C102.44 57.0435 102.89 56.8624 103.236 56.5437C103.582 56.225 103.8 55.7909 103.849 55.3229L105.575 35.5935C105.599 35.3734 105.576 35.1508 105.507 34.9404C105.438 34.73 105.325 34.5367 105.176 34.3731C105.027 34.2095 104.845 34.0795 104.642 33.9916C104.439 33.9037 104.219 33.8599 103.998 33.8632H80.2963C79.8254 33.8713 79.3739 34.052 79.0275 34.3709C78.681 34.6899 78.4637 35.1249 78.4168 35.5935L76.69 55.3229C76.6658 55.5431 76.6887 55.7659 76.7573 55.9766C76.8259 56.1872 76.9385 56.3808 77.0878 56.5445C77.237 56.7082 77.4194 56.8382 77.6229 56.9259C77.8263 57.0137 78.046 57.057 78.2675 57.0532Z" fill="#A63F0E"/>
  <g opacity="0.4">
    <path d="M78.2675 57.0532H101.969C102.44 57.0435 102.89 56.8624 103.236 56.5437C103.582 56.225 103.8 55.7909 103.849 55.3229L105.575 35.5935C105.599 35.3734 105.576 35.1508 105.507 34.9404C105.438 34.73 105.325 34.5367 105.176 34.3731C105.027 34.2095 104.845 34.0795 104.642 33.9916C104.439 33.9037 104.219 33.8599 103.998 33.8632H80.2963C79.8254 33.8713 79.3739 34.052 79.0275 34.3709C78.681 34.6899 78.4637 35.1249 78.4168 35.5935L76.69 55.3229C76.6658 55.5431 76.6887 55.7659 76.7573 55.9766C76.8259 56.1872 76.9385 56.3808 77.0878 56.5445C77.237 56.7082 77.4194 56.8382 77.6229 56.9259C77.8263 57.0137 78.046 57.057 78.2675 57.0532Z" fill="white"/>
  </g>
  <path d="M80.1612 34.9039C79.9833 34.9032 79.8116 34.9692 79.68 35.0889C79.5485 35.2087 79.4666 35.3734 79.4506 35.5505L77.7167 55.3652C77.7082 55.4474 77.7172 55.5305 77.743 55.609C77.7689 55.6875 77.811 55.7596 77.8667 55.8207C77.9224 55.8818 77.9904 55.9304 78.0662 55.9633C78.142 55.9962 78.2239 56.0128 78.3065 56.0118H102.111C102.289 56.0126 102.461 55.9465 102.592 55.8268C102.724 55.7071 102.806 55.5424 102.822 55.3652L104.556 35.5505C104.565 35.4682 104.556 35.3849 104.53 35.3062C104.505 35.2274 104.463 35.155 104.407 35.0938C104.351 35.0326 104.283 34.984 104.207 34.9513C104.131 34.9185 104.049 34.9024 103.966 34.9039H80.1612Z" fill="#A63F0E"/>
  <path opacity="0.8" d="M80.1612 34.9039C79.9833 34.9032 79.8116 34.9692 79.68 35.0889C79.5485 35.2087 79.4666 35.3734 79.4506 35.5505L77.7167 55.3652C77.7082 55.4474 77.7172 55.5305 77.743 55.609C77.7689 55.6875 77.811 55.7596 77.8667 55.8207C77.9224 55.8818 77.9904 55.9304 78.0662 55.9633C78.142 55.9962 78.2239 56.0128 78.3065 56.0118H102.111C102.289 56.0126 102.461 55.9465 102.592 55.8268C102.724 55.7071 102.806 55.5424 102.822 55.3652L104.556 35.5505C104.565 35.4682 104.556 35.3849 104.53 35.3062C104.505 35.2274 104.463 35.155 104.407 35.0938C104.351 35.0326 104.283 34.984 104.207 34.9513C104.131 34.9185 104.049 34.9024 103.966 34.9039H80.1612Z" fill="white"/>
  <path d="M85.1989 44.8096L77.7662 54.9034L77.7236 55.3653C77.7151 55.4475 77.724 55.5306 77.7499 55.6091C77.7757 55.6876 77.8179 55.7598 77.8736 55.8208C77.9293 55.8819 77.9972 55.9305 78.073 55.9634C78.1488 55.9964 78.2307 56.0129 78.3134 56.012H91.4876L85.1989 44.8096Z" fill="#A63F0E"/>
  <path d="M102.992 53.2938L97.265 41.5691L87.6721 56.0295H102.097C102.275 56.0302 102.447 55.9642 102.578 55.8445C102.71 55.7248 102.792 55.56 102.808 55.3829L102.992 53.2938Z" fill="#A63F0E"/>
  <path opacity="0.2" d="M102.992 53.2938L97.265 41.5691L87.6721 56.0295H102.097C102.275 56.0302 102.447 55.9642 102.578 55.8445C102.71 55.7248 102.792 55.56 102.808 55.3829L102.992 53.2938Z" fill="white"/>
  <path d="M93.3176 39.8606C93.2707 40.3188 93.0576 40.7439 92.7184 41.0556C92.3793 41.3672 91.9377 41.5438 91.4772 41.5518C91.2605 41.5556 91.0456 41.5132 90.8465 41.4275C90.6475 41.3419 90.469 41.2149 90.3228 41.0549C90.1767 40.895 90.0662 40.7058 89.9988 40.4999C89.9313 40.2939 89.9084 40.076 89.9316 39.8606C89.9785 39.4024 90.1917 38.9773 90.5308 38.6656C90.8699 38.354 91.3115 38.1775 91.7721 38.1694C91.9887 38.1657 92.2037 38.208 92.4027 38.2937C92.6017 38.3794 92.7802 38.5064 92.9264 38.6663C93.0725 38.8263 93.183 39.0155 93.2505 39.2214C93.3179 39.4273 93.3408 39.6452 93.3176 39.8606Z" fill="#A63F0E"/>
</svg>