<svg width="21" height="20" viewBox="0 0 21 20" fill="none" xmlns="http://www.w3.org/2000/svg">
<g id="twitter" clip-path="url(#clip0_1216_2222)">
<g id="Icon">
<path fill-rule="evenodd" clip-rule="evenodd" d="M12.6047 1.95847C13.4787 1.62488 14.434 1.56776 15.3416 1.79484C16.0632 1.97541 16.727 2.32878 17.2773 2.8209C17.9541 2.57213 18.596 2.23546 19.1864 1.81901C19.4703 1.61879 19.8485 1.61564 20.1357 1.81111C20.4228 2.00658 20.5586 2.35966 20.4764 2.69716C20.191 3.86926 19.6188 4.94962 18.8142 5.84245C18.8265 5.97695 18.833 6.11201 18.8334 6.24722L18.8334 6.24998C18.8334 11.3333 16.386 15.0625 12.8708 16.9335C9.37585 18.7937 4.90915 18.7731 0.928717 16.5618C0.591374 16.3744 0.426836 15.9799 0.531043 15.6083C0.63525 15.2367 0.980939 14.9853 1.36654 15.0006C2.77222 15.0565 4.16373 14.777 5.42903 14.1941C4.17641 13.4212 3.2746 12.5035 2.64763 11.5136C1.81127 10.193 1.49555 8.79406 1.43845 7.53782C1.38151 6.28521 1.58048 5.15739 1.78965 4.34862C1.89474 3.94229 2.00377 3.61123 2.08782 3.37875C2.12989 3.26238 2.16584 3.17032 2.19212 3.10546C2.20526 3.07302 2.216 3.04735 2.22388 3.0288L2.23353 3.00636L2.23665 2.99923L2.23776 2.9967L2.23821 2.99569C2.2384 2.99526 2.23858 2.99486 3.00009 3.33331L2.23858 2.99486C2.3605 2.72052 2.62057 2.53297 2.91937 2.5039C3.21817 2.47482 3.50951 2.6087 3.68205 2.85438C4.445 3.94078 5.46479 4.82164 6.65059 5.41849C7.5938 5.89324 8.61875 6.17658 9.66652 6.25532C9.66036 5.3306 9.9351 4.42553 10.4548 3.66003C10.9802 2.88602 11.7307 2.29206 12.6047 1.95847ZM3.33729 5.03632C3.18422 5.70412 3.06198 6.55101 3.10339 7.46214C3.15046 8.49756 3.40765 9.59863 4.05566 10.6218C4.70032 11.6397 5.76345 12.631 7.5052 13.4051C7.7817 13.528 7.96987 13.7911 7.99678 14.0925C8.0237 14.3939 7.88513 14.6862 7.63478 14.8561C6.709 15.4846 5.69525 15.9573 4.6335 16.2631C7.27531 16.9361 9.92259 16.6147 12.0877 15.4623C15.0305 13.8959 17.1663 10.7507 17.1668 6.25137C17.1661 6.07129 17.1487 5.89165 17.1149 5.71477C17.0627 5.44155 17.1502 5.16029 17.3483 4.96497C17.5339 4.7819 17.7058 4.58678 17.8632 4.38123C17.6744 4.45086 17.4834 4.5148 17.2904 4.57292C16.9765 4.66743 16.6364 4.56917 16.4213 4.32184C16.0314 3.87358 15.5133 3.55586 14.937 3.41166C14.3607 3.26746 13.754 3.30373 13.199 3.51557C12.644 3.72741 12.1674 4.1046 11.8337 4.59612C11.5 5.08764 11.3254 5.66978 11.3333 6.26381L11.3335 6.27498L11.3334 7.10831C11.3334 7.56013 10.9734 7.92965 10.5217 7.94136C8.91983 7.9829 7.33257 7.62764 5.90126 6.90721C4.94662 6.42671 4.08112 5.79371 3.33729 5.03632Z" fill="black"/>
</g>
</g>
<defs>
<clipPath id="clip0_1216_2222">
<rect width="20" height="20" fill="white" transform="translate(0.5)"/>
</clipPath>
</defs>
</svg>
